<svg xmlns="http://www.w3.org/2000/svg" class="m--sg" viewBox="0 0 6573 178"><path d="M77.1 77.9v13h24.8v17.7H77.1c6.7 9.3 16 17.3 21.4 21.6L86.6 144c-4.7-3.2-7.3-5.8-9.5-8.8v33.2H56.9V133c-5.4 8.6-13 18.6-20.1 25.3l-16.6-10.8c12.5-10.4 22.4-22.2 29.6-38.9h-22V91h29.1V78H25.4V60.8h19.2c-1.1-3.9-3.7-13.8-6.3-20.5h-9.1V23.7h29.1v-16l20.5 1.9c2.8.2 3.9.7 3.9 1.7s-.9 1.9-1.7 2.4c-.4.4-1.9 1.7-1.9 2.8v7.3h24.2v16.6h-6c-2 7.6-3.9 13-7.5 20.5h15.3V78h-28zM57.5 40.3c2.4 6.1 4.7 13.2 6.5 20.5h6.9c1.5-4.3 4.3-12.3 6-20.5H57.5zM179.9 30c-1.7 0-6.1 1.1-8.2 1.7-.9.2-21.6 5-41 6.5.2 6 0 8.8-.2 23.1h52v19.9h-16.8v86.1h-19.4v-86h-16.2c-2 45.8-6.9 63.5-22.5 87.6l-19.8-6.5c6.1-6.9 10.1-11.6 14.2-21.6 7.5-18.6 9.1-40.6 9.1-69.7 0-16.6-.2-33.2-.9-49.8l11.6.7c2 .2 4.8-.4 5.6-.4 30-5.8 33.4-6.5 43.8-10.4l11.2 13.4c.6.7 1.9 2.6 1.9 3.9-.1 1.5-1.2 1.5-4.4 1.5zm123.2 122.3c-15.7 10.2-29.3 11.9-37.1 11.9-11.7 0-21.2-4.3-27.2-9.5-8.8-7.6-11.7-17.1-11.7-61.9 0-11.4 1.5-66.7.9-79.2l24.8 3.5c4.5.6 6.1 1.9 6.1 3 0 1.5-2.2 3-5.2 5.4-1.5 4.8-5.2 54-5.2 74.5 0 8.6 0 26.6 3.5 33 .4.6 4.5 7.8 16.4 7.8 10.4 0 35.4-6.5 53.7-42.3l18.3 15.1c-7.7 10.7-18.8 26.7-37.3 38.7zm106.3-1.7c-6 0-10.6-3.2-13.8-6.1-13-12.7-19-34.5-19-69.9 0-23.9 2.6-36 5.6-48.4l20.5 5.6c1.3.4 4.3 1.3 4.3 3.5 0 2-2.2 2.8-5.4 3.9-2 10.2-3.5 21.1-3.5 41.6 0 36.3 8.9 43 12.7 43 6.7 0 14.3-19.8 17.9-28.7l15.5 13.8c-10.4 21.9-19.7 41.7-34.8 41.7zm94.5-33.2c-5.4-38.8-17.7-60.7-27.4-75.7l19.2-9.3c8.9 12.7 25.5 36.1 30.6 79.2l-22.4 5.8zm95.8-96.5c-2.4.9-2.8 1.5-3.5 2.8-3.5 11.2-5 14.7-6.7 18.1 4.3 2.4 4.8 2.6 4.8 3.7 0 .9-1.7 2.4-1.9 2.6-.6.6-1.9 1.7-1.9 3V167H570V78.1c-1.3 2-2.2 3.5-5.4 8.6l-17-11.4c9.1-12.1 20.7-28 32.6-66.7l16.2 5.6c4.3 1.5 6.3 2.2 6.3 3.9s-1.9 2.4-3 2.8zM683 33.2v24.4h29.8v107.5h-19.6v-5.4h-67.8v6.5h-19.8V57.6H635V33.2h-31V14.7h112.5v18.4H683zm-47.9 44.2h-9.7v62.8h9.7V77.4zm29.2-44.2h-10.6v24.4h10.6V33.2zm0 44.2h-10.6v62.8h10.6V77.4zm28.9 0H683v62.8h10.2V77.4zM794.4 20c-2.6.7-3 .7-3.5 1.7-3.4 9.1-4.5 12.1-9.1 22 1.5.9 4.5 3 4.5 5 0 .9-.6 1.7-2.8 3-.9.6-2.4 1.5-2.4 2.4v115.3h-18.3v-92c-1.7 2.4-3.9 5.2-6 7.3l-18.1-12.3C750 60 764.2 41 772.6 6.7l20.9 8c1.3.6 3.2 1.5 3.2 3-.1 1.3-1.2 1.9-2.3 2.3zm17.3 143.3v6.1h-19V61.1l18.8 2c2 .2 4.8.7 4.8 2.6 0 .9-.7 1.5-1.7 2.2-2.8 1.9-3 2-3 2.8v75.1h96.5v17.3h-96.4zm53.5-123.8v11.6h33.5v87.4H821V51.1h23.1V39.5h-43v-18h43V7.1l19.8 2c4.5.4 6 1.3 6 2.6 0 1.7-1.9 2.6-4.7 4.1v5.6h43.2v18.1h-43.2zm14.5 27.8h-40.2V76h40.2v-8.7zm0 22.9h-40.2V99h40.2v-8.8zm0 22.9h-40.2v9.1h40.2v-9.1zm204.9 56.1h-15.5c-5.8 0-13.2-1.7-13.2-10.4v-48.6h-13.6l7.6 2.2c1.1.4 3 .9 3 2.6 0 .9-.2 1.1-3 4.1-.6.6-.4.6-1.1 3.5-7.6 35-23.5 45.3-29.6 49.2l-18.8-10.2c3.7-2.2 5.6-3.4 7.5-4.8h-41.2v11.6h-17.9V96.7L933.5 84c11-6.1 17.9-12.3 25.7-24.4h-22.7V44.2h16.6l-17-7.6c8.6-9.3 14.5-19.8 18.6-30.9l17.7 5.2c.9.2 2.2.7 2.2 2 0 .9-.6 1.3-1.9 1.9-1.7.7-2.2 1.1-3 3.4h48.3v16h-28c-1.3 5-1.7 6.1-3 10.1h32.2v15.5h-18.6l7.3 3.4c.9.6 2.8 1.7 2.8 3 0 1.1-.9 1.5-2 1.9-1.9.6-2.2.9-3.2 2.4-.9 1.3-2.8 3.7-3.7 4.7h17.3v14.5h-20.7v8.4h15.5v12.3h-15.5v9.1h15.7V132h-15.7v10h20.1v4.8c9.5-12.3 12.5-33 13-36.7h-7.8V12.3h74.7v97.8H1076v34.1c0 2.6 1.7 4.1 3.7 4.1h2.6c2.8 0 5.6-1.1 5.6-11l16.4 6.5c-2.9 25.4-11.5 25.4-19.7 25.4zM961.1 34.1c-2.2 3.5-4.1 6.5-6.7 10.1h12.3c1.9-5.6 2.6-8.4 3-10.1h-8.6zm20.3 55.4h-14.7v8.4h14.7v-8.4zm0 20.6h-14.7v9.1h14.7v-9.1zm0 21.7h-14.7V142h14.7v-10.2zm-.9-72.1c-3.7 6.7-6.9 11-10.4 15.3h12.7c4.5-4.8 7.3-9.7 9.5-15.3h-11.8zm99.1-30.2h-37.1v9.9h37.1v-9.9zm0 24.7h-37.1v10.6h37.1V54.2zm0 26.5h-37.1v11.4h37.1V80.7zM1212 63.4c-13.8 13.8-22.7 30.6-22.7 44.7 0 12.9 8.2 20.5 13.4 24.2 12.1 8.6 25.2 9.1 32.8 9.5l-7.3 22.7c-9.9-1.7-30.7-5.6-45.8-20.7-8.9-8.8-13.8-20.9-13.8-33.5 0-12.5 4.7-25 12.7-37.1 8.8-13.6 18.1-22.4 24.6-28.3-25 2-52.4 4.3-71 6.9l-3.2-20.9c40.2.4 98-4.1 133.2-14.9v21.6c-8.7.6-29.2 1.9-52.9 25.8zm38.9 31.8c-4.1-5-8-8.8-15.3-14.3l7.6-8.9c6.1 4.7 10.8 8.6 15.5 14.3l-7.8 8.9zm15.1-16.9c-4.8-5.6-9.3-9.7-15.5-14.2l7.8-8.9c7.8 5.8 11.6 9.7 15.5 14.2l-7.8 8.9zm63.2 35.8c15.7 9.1 29.8 20.9 41.4 40.4l-19.4 15.5c-9.7-16.2-21.4-29.6-36-41.4l14-14.5zm227-42v57.8h-20.7v-6.7h-23.7v6.7h-20.7V72.1h-24.8v70.4H1569V162h-102.7v6h-21.1V72.1H1421V52.6h24.2V16.2l19.9.9c4.1.2 4.3 1.1 4.3 1.7s-.2 1.1-1.5 2c-1.5 1.1-1.7 1.9-1.7 2.4v29.3h24.8V8.2l19.8 1.3c2.4.2 4.1.7 4.1 2.2 0 .7-.2 1.1-1.5 2-1.5 1.3-1.7 2-1.7 2.8v36h23.7V14.7l20.3.9c2.6.2 4.3.7 4.3 2.2 0 .6-.2 1.1-1.7 2.2-1.1.7-2.2 1.9-2.2 3.2v29.3h25.3v19.6h-25.2zm-20.7 0h-23.7v31.1h23.7V72.1zm213.4 55.6c-14 20.7-33.4 28.7-43.4 32.8l-13.8-19.2c8.4-2.4 22.2-6.3 33.5-19.9 11.4-13.4 13.4-28.9 13.4-37.1 0-10.2-3-22.7-13.4-32.6-11.7-11.2-24.8-11.9-31.7-12.5-6 44.3-17 70.4-23.1 82.9-5.6 11.6-14.2 27.2-23.9 27.2-6.7 0-37.3-16.8-37.3-50.1 0-41.4 34.1-79 82.2-79 38.8 0 69.3 26.3 69.3 67.8.1 16.4-4.9 29.4-11.8 39.7zm-100.2-71.8c-13.2 12.7-18.6 30-18.6 41.4 0 15.1 8.6 22.9 11.9 22.9 9.7 0 25.7-48.6 29.4-77.7-5.4 1.9-13.8 4.7-22.7 13.4zm273.1 66.7v-7.5H1879V168h-21.4v-52.9h-42.5v8.2h-21.4V39.7h63.9V8l23.3 2c1.1.2 2.8.4 2.8 2 0 1.3-1.3 2-2 2.6-1.5.9-2.6 1.7-2.6 2.8v22.2h64.3v82.9h-21.6zM1857.5 60H1815v35h42.5V60zm64.3 0H1879v35h42.9V60zm89.5 94.3l-14.7 5.8c-3-4.8-4.7-7.8-6.9-14.7-5.6-17.3-7.6-34.7-7.6-49 0-11.9 1.5-25.7 2.8-36.7 2.6-20.1 5.2-31.5 7.8-42.5l19 6.9c1.3.6 4.8 1.9 4.8 3.4 0 .4-.2 1.1-.9 1.7-.4.2-2.8 1.1-3.2 1.3-2.8 1.7-10.8 35.4-10.8 63.5 0 3.2 0 17.5 2.6 25.5 2.2-3.9 3.4-5.8 7.5-13l11 6c-6.7 15.2-9.5 29.9-11.4 41.8zm66.8-5.4c-33.9 0-41-9.1-41.6-40.6l20.3-2.8c.2 17.7 2 22.7 20.9 22.7 21.2 0 35.8-3.9 42.5-5.8v23.1c-9.9 1.5-22.4 3.4-42.1 3.4zm-15-95.8c-1.5 0-10.1 0-19.9-.9V31.7c5.4.7 13.8 2 23.9 2 21.8 0 37.1-5.2 44.2-7.6v21.6c-8.7 1.7-27.5 5.4-48.2 5.4zm127.6 4.3c-3.5 4.1-7.8 8.2-11.4 11.7-6.3 6-8.8 7.5-11.9 9.7l-16.2-14.5c13.2-7.1 20.7-15.8 26.3-24.2l16.2 12.9c2 1.7 2 2 2 2.6.1 1.4-.3 1.4-5 1.8zm71.4-17.9v36.3c0 10.4-10.6 14-22 14h-4.8l-8-18.8h10.6c3.9 0 5-.9 5-6.1V39.5h-15.1c-.6 17.5-4.5 27.8-15.5 39.3l15.3 8c.9.6 2.4 1.3 2.4 2.6 0 .9-.7 1.5-.9 1.7-.6.6-3.5 2-4.3 2.4h54.6l5.4 6.3c-12.1 16.6-20.5 25.5-33.9 36.3 6.9 3.2 14.3 6.7 29.3 9.7 12.3 2.4 20.1 2.8 28.7 3.2l-9.9 20.3c-25.2-2.8-42.5-7.3-65.6-21.1-16.2 8.9-30.9 15.7-65.6 22.7l-10.6-19c23.1-1.9 39.1-6.1 59.4-16.2-6.3-5.8-10.6-10.2-16.6-18.3-12.9 10.2-21.1 15.3-31.5 19.4l-16-15.5c18.8-6.5 35-19 48.4-33.9-5.8 3.4-10.1 5-14.2 6.5l-11.2-17.5c8.2-2.6 18.8-5.8 25.9-14.9 6-7.8 6.5-14.5 6.9-22.2h-54V22.2h67.1V6.9l22.4.7c2.8.2 5.6.4 5.6 2.4 0 .9-.6 1.3-.9 1.7-3 2.4-3 2.4-3 3.5v6.9h67.6v17.3h-51zm-43.8 71.2c4.5 6.3 8.6 10.2 14.5 14.9 7.1-5.4 11.2-9.3 15.7-14.9h-30.2zm74.5-28.3c-5.2-9.3-15.3-20.9-23.1-27l16.6-12.9c7.3 5.6 17.1 16.4 24.4 26.5l-17.9 13.4zm138.5 59.4v26.6h-22.7v-26.6H2341v-17.7h67.6v-8.9h-48.8V69.9h48.8v-7.6h-25.2v-24h-41V21.6h41V8.4l22.7 1.7c.9 0 2.4.4 2.4 1.7 0 .9-.7 1.5-1.3 1.9-.9.6-1.7 1.3-1.7 2.2v5.8h31.9v-13l22.4 1.5c1.9.2 3 1.1 3 2.2 0 .6-.2 1.3-1.1 2-1.5 1.1-2.4 1.9-2.4 3.2v4.1h39.9v16.6h-39.9v24h-28v7.6h51.1v45.3h-51.1v8.9h69.7v17.7h-69.7zm-22.7-56.4h-26.8v14.2h26.8V85.4zm28.8-47.2h-31.9v8.9h31.9v-8.9zm22.2 47.2h-28.3v14.2h28.3V85.4zm162.8 14.3c0 7.3.4 30.4.4 36.7h-21.6c.6-10.6.7-19.8.9-28-7.1 3.5-26.5 13.2-26.5 26.3 0 12.1 14.3 14.5 28 14.5 16 0 31.9-2.4 47.5-6v21.1c-17.7 2.8-38.4 2.8-44.3 2.8-10.4 0-32.1 0-43.8-12.5-7.1-7.5-7.1-15.7-7.1-18.3 0-23.1 17.1-31.9 45.1-46.2-1.1-5.6-3.4-12.3-14.2-12.3-18.3 0-29.4 17-39.7 33.7l-18.3-11.4c14.7-15.8 24-29.1 36.7-51.2-10.6.6-16.4.7-24.2.7l-2.2-19.4c11.2.9 19.4 1.3 35.6.7 4.7-10.1 7.1-16.6 9.3-24.8l23.3 4.1c.6.2 3.7.6 3.7 1.9 0 1.1-.7 1.7-1.9 2-.4.2-4.1 1.9-4.3 1.9-.2.2-4.8 10.6-5.8 12.7 17.1-2.8 25.5-5.2 36.5-9.5l-1.3 20.9c-16.8 3.9-32.1 5.6-44.5 7.1-6 11-7.5 13.6-10.6 18.4 2.4-1.1 8-3.9 16-3.9 12.9 0 21.1 6.5 25.3 18.8 21.8-10.2 24.2-11.4 33-15.3l6.3 21.2c-14.6 4.9-23.5 8.1-37.3 13.3zm226.3 63.9h-57c-7.3 0-22.9.2-37.1-4.8-19.8-6.9-30.2-19.2-36.5-26.3-5 18.8-7.5 25.3-10.6 31.9l-20.7-7.3c3.7-6.9 6.7-12.1 11-27 5.8-20.3 6.9-33.2 8-42.9l20.3 2c.9.2 2.2.4 2.8.7V79.2h-34.8V59.8h33.4V45.7h-28.9V27.2h28.9V7.5L2748 9c3.4.2 4.8.9 4.8 2.4 0 .7-.4 1.1-1.1 1.9-1.5 1.1-3.2 2.4-3.2 3.2v10.8h24.4v18.4h-24.4v14.2h27.4v19.4h-25.3V94h23.5v19.4h-23.5v23.3c6.9 3 16.2 6.7 34.5 6.7 15.8 0 53.1-2.2 75.3-3.5l-11.7 23.7zm-119.8-70.4c-.4.6-3.5 2.2-3.7 3-.4 4.3-.6 6-2.2 15.3.9 1.5 1.5 2.4 6 8.2V93.2zm118.9 30.9c-3 6.5-9.7 8.9-23.5 8.9h-26.8c-9.3 0-17-6.3-17-16V62.6h44.9V35.8h-46.6V17.2h68.8v68.9h-22.2v-5.8h-24.8v23.5c0 7.8 2 9.5 7.5 9.5h15.8c8.6 0 10.6-8.4 11.7-16.4l16.6 9.7c-.7 9.3-4.2 17.2-4.4 17.5zm106 31.5c-16.6 0-43.2-1.5-54-11.7-3-2.6-6.1-6.7-6.1-14.5 0-16.6 9.9-27 18.6-35.6l17.1 14c-4.7 3.9-11 9.7-11 16 0 3.5 1.5 5 2.6 6 5.2 4.5 23.5 4.5 31.7 4.5 32.1 0 44.2-2.2 58.1-5l1.1 23.1c-16.4 1.4-36.5 3.2-58.1 3.2zm4.8-80.5L2945 60.4l19-16c-30.9 0-43.6-.2-54.6-1.1l-5-21.4c16.6 2.8 33.4 4.3 50.3 4.3 13.6 0 27.4-.4 41-2.2l8.8 15.7c-16.4 11-35.6 26.8-45.9 35.4zm181.6-22.5v26.1c2 4.5 5.4 11 5.4 22.7 0 5.4-1.1 19.2-9.5 36-8.6 17.3-18.6 27.8-25.3 34.7l-20.9-10.8c11.2-7.3 22.5-17 26.6-30.6-4.1 1.1-6.9 1.9-10.1 1.9-4.8 0-10.6-1.7-15.3-5.8-7.6-6.7-9.7-16.8-9.7-25.9 0-20.5 10.2-34.7 29.3-34.7 3.5 0 6.1.6 8.8 1.5l-.4-14c-16.6.9-44.7 2.6-68.4 5.6V37.7c12.7 0 28.7 0 67.8-1.9-.2-5.8-.2-15.7-1.3-29.3l20.7 1.3c4.3.2 5.4.7 5.4 2.6 0 1.1-.4 1.7-1.7 2.8-1.3 1.1-1.5 1.5-1.5 2.2v19.2c25.9-1.5 31.7-2 50.7-3.5v20.1c-14.1.1-26.4.4-50.6 1.4zm-20.7 33.9c-1.9-1.9-4.5-2.6-6.9-2.6-7.5 0-12.7 6.5-12.7 16.4 0 11.2 6 15.5 10.2 15.5 3.9 0 12.9-4.1 12.9-17.3 0-4-.5-8.8-3.5-12zm1256 79.9c-34.8-21.2-47.3-34.5-62.6-67.6-13.6 32.1-25.5 44.9-61.9 68.6l-18.1-18.1c18.3-8.8 28.1-14.7 39.9-26.8 25.7-26.8 28-56.6 28-76.6 0-5-.6-29.1-.7-36.9l20.9.7c2 0 8.4 0 8.4 2.8 0 .9-.4 1.7-1.5 3-.4.6-3.4 3-3.7 3.7-.4.7-.4 13.2-.4 15.7 0 75.1 36.1 95.8 68.4 112.9l-16.7 18.6zm100.1-57.9c-9.7-7.1-13.6-12.7-16.2-16.4v76.2H4438v-57.8c-2.6 5.6-6.1 12.7-14.9 22.5l-17-13.4c20.9-23.7 27-47.3 29.8-60.7h-26.1V37.7h28.1V7.3l20.3 1.3c3.5.2 5 .7 5 2.4 0 .6-.4 1.1-1.1 1.5-2.8 2-2.8 2.2-2.8 3v22.2h21.6v21.2h-21.6c6.5 15.5 19 26.5 29.6 34.1l-13.3 15.5zm72.1-49.6v95c0 11.9-6.9 16.6-20.5 16.6H4514l-8.6-22.4c6.7.6 9.5.9 12.5.9 5.6 0 8.4-.7 8.4-9.9V95.4c-15.8 25.2-29.8 39.7-45.1 51.6l-19.8-13.2c17.5-12.5 44.3-35.4 58.7-74.9h-30.4V38.4h36.5V7.5l20.5 1.1c3.9.2 5 1.1 5 2.6 0 .6-.4.9-1.3 1.5-2.6 2-2.8 2-2.8 3v22.7h21.6v20.5h-21.5zm155-26.1c-7.8 13.4-10.1 16.2-14.5 22 .9.2 2.6.7 2.6 2.4 0 1.1-.9 1.9-1.1 2-2.8 2.4-3.2 2.8-3.2 3.9v105.3h-22.4V80.9c-20.7 18.6-35.8 28.7-57.4 39.3l-14.3-18.6c12.5-5.6 36-15.8 55.7-36 9.7-9.9 18.8-20.5 25.2-32.8h-76.8V13.1h158.2v19.8h-52zm37.3 86.7c-14.2-17.3-28.3-32.2-49.2-48.4l13-14.9c20.1 14.2 36.1 29.4 52.5 47.5l-16.3 15.8zm186.2 46.9c-14.3-.4-47-2.6-57.2-3.5-33.7-3.4-46.8-18.1-56.1-28.1-8.8 19.8-16.2 26.8-22 31.9l-23.5-10.8c7.8-6.7 16.6-14.2 24-29.6 7.8-16.2 8.2-28.7 8.6-39.1l21.8 2c1.5.2 5.6.6 5.6 2.8 0 .9-.6 1.3-1.3 1.7-2.8 1.1-3 1.3-3.2 2.2-.7 7.3-1.1 9.1-2.4 16 2.2 4.7 6.5 13.4 20.5 21.4V73.4h-49.6V10.1H4917v63.4h-53V94h55.3v19.6H4864v28c9.3 1.9 19 2 32.1 2 21.2 0 32.2-.7 41-1.3l-10.9 24.1zm-32.6-137.3h-79.2V55h79.2V29.1zm160.1 70.6c0 7.3.4 30.4.4 36.7h-21.6c.6-10.6.7-19.8.9-28-7.1 3.5-26.5 13.2-26.5 26.3 0 12.1 14.3 14.5 28 14.5 16 0 31.9-2.4 47.5-6v21.1c-17.7 2.8-38.4 2.8-44.3 2.8-10.4 0-32 0-43.8-12.5-7.1-7.5-7.1-15.7-7.1-18.3 0-23.1 17.1-31.9 45.1-46.2-1.1-5.6-3.4-12.3-14.2-12.3-18.3 0-29.4 17-39.7 33.7l-18.3-11.4c14.7-15.8 24-29.1 36.7-51.2-10.6.6-16.4.7-24.2.7l-2.2-19.4c11.2.9 19.4 1.3 35.6.7 4.7-10.1 7.1-16.6 9.3-24.8l23.3 4.1c.6.2 3.7.6 3.7 1.9 0 1.1-.7 1.7-1.9 2-.4.2-4.1 1.9-4.3 1.9-.2.2-4.8 10.6-5.8 12.7 17.1-2.8 25.5-5.2 36.5-9.5l-1.3 20.9c-16.8 3.9-32.1 5.6-44.5 7.1-6 11-7.5 13.6-10.6 18.4 2.4-1.1 8-3.9 16-3.9 12.9 0 21.1 6.5 25.3 18.8 21.8-10.2 24.2-11.4 33-15.3l6.3 21.2c-14.6 4.9-23.5 8.1-37.3 13.3zm122.5-44.1c-15.1 43.6-24.8 62.2-34.5 79.9l-19.9-8.6c14.9-22.7 24.2-46.8 31.9-67.8-8.6 1.1-13.8 1.7-22.5 2.2l-2.8-19.4c12.3-.2 20.1-.9 31.7-2.4 3.2-11.2 5.4-19.4 6.7-30.7l20.3 4.5c.9.2 4.5 1.1 4.5 3.2 0 1.9-3.2 3-4.3 4.1-.2.2-3.7 12.1-4.5 14.5 11-2.8 16.6-4.7 21.4-6.3v20.9c-6.4 1.6-12.2 3.1-28 5.9zm65.9 99.1c-6.3-5.2-11.2-8.4-18.4-12.3-1.7 14.9-7.3 22.7-31.7 22.7-11.9 0-22.5-1.9-30.4-8.8-3-2.6-6.9-8-6.9-15.8 0-10.1 7.3-26.5 33-26.5 6.1 0 10.8.6 14.5 1.1-.4-4.3-2.6-23.3-2.6-27.2 0-8.9 4.3-14.5 8-19l19.4 10.4c-6 4.8-7.1 9.5-7.1 14.9 0 3.9.4 12.1 2.4 25.9 12.3 4.8 20.3 9.5 32.1 17l-12.3 17.6zM5187 131c-9.7 0-14.2 5.2-14.2 8.9 0 4.1 5.2 8.4 15.5 8.4 15.1 0 14.9-7.8 14.9-14.5-3.3-.9-9.9-2.8-16.2-2.8zm63.5-55.9c-12.3-7.5-22.4-12.3-40.8-17l8.4-16c13.8 2.4 27.8 6.7 41.6 17.1l-9.2 15.9zm137-49.7c-2.2.2-2.8.7-7.6 5.6-3.9 4.1-22 21.4-41.2 39.3-12.3 11.6-13.2 12.5-13.2 16 0 2.8 1.1 4.8 3.2 6.5 24 19.8 42.1 36 63 62.2l-19.2 17.9c-22-32.8-40.2-49.2-64.3-69.9-8-6.7-9.3-13-9.3-16.4 0-8.2 6.7-15.1 12.9-20.9 26.5-24 41.7-38.8 59.6-60.7l17.1 13.2c.4.4 3.9 3.2 3.9 5-.1 1.6-.6 1.6-4.9 2.2zm139.2 27.2v26.1c2 4.5 5.4 11 5.4 22.7 0 5.4-1.1 19.2-9.5 36-8.6 17.3-18.6 27.8-25.3 34.7l-20.9-10.8c11.2-7.3 22.5-17 26.6-30.6-4.1 1.1-6.9 1.9-10.1 1.9-4.8 0-10.6-1.7-15.3-5.8-7.6-6.7-9.7-16.8-9.7-25.9 0-20.5 10.2-34.7 29.3-34.7 3.5 0 6.1.6 8.8 1.5l-.4-14c-16.6.9-44.7 2.6-68.4 5.6V37.7c12.7 0 28.7 0 67.8-1.9-.2-5.8-.2-15.7-1.3-29.3l20.7 1.3c4.3.2 5.4.7 5.4 2.6 0 1.1-.4 1.7-1.7 2.8-1.3 1.1-1.5 1.5-1.5 2.2v19.2c25.9-1.5 31.7-2 50.7-3.5v20.1c-14.1.1-26.4.4-50.6 1.4zM5506 86.5c-1.9-1.9-4.5-2.6-6.9-2.6-7.5 0-12.7 6.5-12.7 16.4 0 11.2 6 15.5 10.2 15.5 3.9 0 12.9-4.1 12.9-17.3 0-4-.5-8.8-3.5-12zM3315.4 79v-3.8H3284V79h-8.5V24.8h13.7c1.8-3.9 2.3-6.7 2.6-8.4l10 1c.7.1 1.1.4 1.1.8s-.4.7-.7.8c-1.3.7-1.5.8-1.9 1.4-.1.2-1.7 3.8-2.1 4.5h25.6V79h-8.4zm0-46.8H3284v6.6h31.4v-6.6zm0 13.7H3284v7.2h31.4v-7.2zm0 14.3H3284V68h31.4v-7.8zm21.2 18.5v-8.1h33.3c4.2-10.2 7-22.3 8.2-30.1l8.6 1.8c.4.1 1.8.4 1.8 1.2 0 .3-.1.5-.7.8-1 .4-1 .7-1.2 1.1-1.5 5.4-5.6 18.4-8.3 25.2h21.3v8.1h-63zm3.5-41.3v-7.7h23.1V16.2l9.3.7c.5 0 1.5.2 1.5 1 0 .3-.1.5-.7.8-.3.2-.7.4-.7.7v10.4h23.4v7.7h-55.9zm15.6 30.6c-.9-10.1-4.2-18.1-7.1-23.9l7.8-2.3c4.4 7.7 6.9 17.9 8 24.3l-8.7 1.9zm88.5 5.2c-6.1 4-11.5 4.7-14.6 4.7-4.6 0-8.3-1.7-10.7-3.7-3.4-3-4.6-6.7-4.6-24.3 0-4.5.6-26.2.4-31.1l9.7 1.4c1.8.2 2.4.7 2.4 1.2 0 .6-.9 1.2-2 2.1-.6 1.9-2 21.2-2 29.3 0 3.4 0 10.5 1.4 13 .1.2 1.8 3.1 6.4 3.1 4.1 0 13.9-2.6 21.1-16.6l7.2 5.9c-3 4-7.4 10.3-14.7 15zM3492 38c-3.6 12.2-7.4 23.9-15.1 38.9l-8.9-2.7c4.4-7.1 9.1-15 14.9-34.8-5.9.7-8.3.8-10.9.9l-.6-7.6c.8.1 2.3.4 5.9.4 1 0 5.6-.1 7.2-.4 1.1-5 2.3-10.6 2.5-15.5l9 2.1c.1 0 1.8.4 1.8 1.2 0 .5-.2.7-.9 1-1 .4-1.1.5-1.2 1.2-.7 3.3-1.2 5.9-1.8 8 4.3-1 8.7-2.9 11.6-4.3v8.1c-2.3.8-5.4 2-13.5 3.5zm18.5 39.5c-13.2 0-18.8-3.7-18.8-11.1 0-.4 0-2.7.9-5.3l7.2 1.5c-.3 1.4-.3 2.6-.3 2.7 0 1 .1 1.5.9 2.2 2.1 1.9 7.6 2 9.3 2 6.8 0 10.8-1.1 12.9-1.6l.7 8.5c-3.7.7-7.6 1.1-12.8 1.1zm1.7-29.1c-4.7 0-9.2.6-11 .8v-7.7c3.8-.3 7.5-.5 11.3-.5 5.1 0 7.5.2 9.7.4v7.8c-5.5-.7-8.9-.8-10-.8zm43.3-26.9c-.9.3-1 .4-1.2.6-.1.1-4 8.6-4.5 9.9 1.1.4 2 1 2 1.7 0 .4-.1.5-.4.8-.7.7-1.2 1-1.2 1.5v43.6h-7.8V44.2c-1 1.4-1.6 2.1-3.1 3.8l-7-5.7c7.1-7.2 11.5-14.4 14.2-26.4l7.5 2.7c1.8.7 2.2 1.2 2.2 1.9-.1.7-.4.8-.7 1zm34.7 57.3v-2.3h-25.8V79h-8V17.9h41.8v60.9h-8zm0-54h-25.8v44.8h25.8V24.8zm-9.3 14.7v5.1h6.4V65h-20.1V44.6h6.9v-5.1h-8.3v-6h8.3v-6.9l5.9.2c1.2.1 2.4.1 2.4.8 0 .5-.3.8-.7 1.1-.4.3-.9.7-.9 1.2v3.6h8v6h-7.9zm-.2 11.5h-6.8v7.7h6.8V51zm84 27.7c-13.7-8.3-18.6-13.5-24.6-26.6-5.3 12.6-10 17.6-24.3 26.9l-7.1-7.1c7.2-3.4 11.1-5.8 15.7-10.5 10.1-10.5 11-22.3 11-30.1 0-2-.2-11.4-.3-14.5l8.2.3c.8 0 3.3 0 3.3 1.1 0 .4-.1.7-.6 1.2-.1.2-1.3 1.2-1.5 1.5s-.1 5.2-.1 6.1c0 29.5 14.2 37.6 26.9 44.4l-6.6 7.3zm50.4-6.3c-1.5 1.5-4 2.9-8.3 2.9-2.2 0-4.2-.1-5.5-.3l-1.8-7.9c1.3.3 2.9.6 5 .6 2.3 0 3.7-.4 5.1-2 3.3-4.1 3.9-13.3 3.9-16.8 0-5.6-1.4-7.4-5.9-7.4-1.6 0-3.1.2-4 .4-3.7 15-7.2 23.8-13.9 33.9l-7.6-3.4c6.9-9.8 10.3-17.1 13.3-28.6-4 1.2-6.3 2.2-10 4l-2.7-8.8c5.6-.9 8.1-1.4 14.1-2.7.6-4.7.8-7.8.7-13.9l8.8 1.2c1 .1 1.8.5 1.8 1.1 0 .3-.1.4-.8.8-.9.6-.9.6-1 1.5-.4 2.9-.5 4.2-1.1 7.5 1.2-.2 3.2-.5 5.3-.5 9.9 0 10.8 8.7 10.8 15.2-.1 10.5-2.7 19.9-6.2 23.2zm13.7-16.5l-3.9-7c2.6-.4 4.2-.7 4.2-2.5s-2.8-7.8-10.5-16.8l5.9-4.1c3.4 4 13.3 15.8 13.3 23.6 0 5.6-6.3 6.4-9 6.8zm6.3-23.4c-1.8-2.6-3.5-4.5-5.8-6.4l4-2.9c2 1.8 4 4.1 5.6 6.2l-3.8 3.1zm7.5-4.4c-1.5-2.4-3.2-4.5-5.2-6.3l3.8-2.8c2 1.6 3.9 3.7 5.7 6.1l-4.3 3zm66 15.9c-13.6-4.8-22.2-12.7-28.4-19.7-6.6 9.4-16 16.1-26.1 21.4l-7-7.3c12-4.5 21.6-11.7 28-22.4l9.6 1.3c.8.1 1.3.6 1.3 1.2 0 .1-.1.4-.1.4 3.6 4.3 7.8 8.1 12.4 11 5.6 3.6 10.2 5.4 16.7 7.2l-6.4 6.9zm-56.7 35.8v-8.1h9.8V47.3l7.9.8c.5 0 1.4.1 1.4.9 0 .2 0 .4-.5.9-.2.1-.7.5-.7 1v20.7h7.5V33.3l8.2.8c1 .1 1.8.3 1.8 1 0 .4-.6.8-.9 1-.2.1-.8.6-.8 1v12.4h15.7v8.3h-15.7v13.8h23.4v8.1h-57.1zM3863 61.5c6.5 6.3 12 8.9 20.2 11.3l-5.6 6.4c-12.4-5.1-17.6-10.3-20.9-13.8v13.8h-7.9v-13c-5.5 5-11.2 9.5-20.1 13.8l-6.7-5.9c7.8-3 13-5.7 21-12.4h-21V55h26.8v-3.1H3830V46h18.7v-3.1h-23.4v-6.3h13.7c-1.8-3-2-3.4-2.8-4.4H3822v-6.1h10.8c-1.4-2-3.1-4.1-4.8-5.9l6.1-3.8c1.8 1.8 4 4.2 6.2 7.8l-3.1 1.9h5.8v-9.6l8.1 1.1c.2 0 .7.3.7.7 0 .4-.4.7-.6 1-.4.3-.7.7-.7 1.2v5.7h5.1v-9.3l7.9 1c.4.1.8.2.8.7 0 .3-.2.5-.6.7-.2.1-.6.4-.6.8v6.1h4.6l-2.4-1.2c2.2-3.4 3.4-6.4 4.2-8.1l7.3 3.7c.2.1.5.3.5.6s-.3.6-.4.7c-.2.1-1.2.4-1.5.7-.1.1-2.2 3.2-2.6 3.8h10.7v6.1h-14.3c-1 1.8-1.7 2.9-2.6 4.4h13.5v6.3h-23.3v3.1h19.1v5.9h-19.1v3.1h26.9V62H3863zm-18-29.6c1 1.8 1 2 2.3 4.4h10.9c.9-1.4 1.6-3.1 2.2-4.4H3845zm76 45.8c-8.6 0-12.4-1-16.1-2.9-5.3-2.8-7.5-7.9-7.5-12.5 0-9.2 7.1-13.8 15.2-18.6-2.1-2.2-3.4-4.5-4.3-6.6-1-2.4-1.4-4.5-3.7-18.5l9.4-1.4c.1 4.1.1 11.9 2.1 17.4 1 2.8 2.6 4 4.2 5 8.4-4 9.4-4.4 18.4-8.6l2.7 8.9c-11.6 3.1-22.4 8.6-27.1 11.6-3.3 2-8.7 5.8-8.7 10.7 0 5.3 5.8 7.8 13.5 7.8 7.6 0 15.2-1.5 22.6-3.3V76c-4.4.6-11.5 1.7-20.7 1.7zm65.6-43.4c-2.3 12.1-4.8 17.7-6.7 22.1 2.3 3.7 4.8 7.7 8.1 14.3l-7.7 4.7c-1.8-4.2-3.1-7-5.1-10.8-2.6 4-6 8.9-13.3 15l-7.6-5c5.3-4.4 11.1-9.2 16-17.9-4-5.7-6.8-9.2-11.8-13.6l6.5-4.8c2.7 2.3 5 4.5 9.3 10.3 1.8-4.8 2.1-6.1 3.8-14.5h-21v-7.5h13.2v-10l9.2.6c.4 0 1 .2 1 .8 0 .7-.7.9-1.5 1.7v7.2h13.3v7.5h-5.7zm7.1 28.6c-1.2-3.7-2.7-7.3-5.9-11.6l7.1-4c2.7 3.4 4.9 7.1 6.3 12l-7.5 3.6zm20-19.5v27.4c0 7.8-2.3 8.6-12.2 8.8l-4-7.9c7.5.4 8.1-.1 8.1-2.6V43.4h-16.4v-7.5h16.4V16.1l8.2.4c.6 0 1.7.2 1.7 1.1 0 .4-.2.7-.7 1.1-1 .9-1.2 1-1.2 1.5v15.7h6.3v7.5h-6.2zm65.7 8.5v4.3h10.8v6.7h-10.8v9.8c0 4.7-.8 7-6.3 7h-6.7l-3.4-8c.8.1 3.1.5 5.4.5 1.6 0 2.3-.5 2.3-2.3v-7h-23.9c2.7 3 4.8 6.1 7 10.2l-6.8 4c-1.8-3.6-4.6-7.6-7.5-10.8l3.9-3.4h-12.8v-6.7h40v-4.3H4029v-6.3h26.9v-4h-22.5v-5.9h22.5v-4.1l4.2.4-3.4-2.6c.5-.4 1.4-1.2 2.7-3.1h-8.9c.4 1 1.2 2.9 1.8 6.2l-7.2.7c-.2-2.4-.7-4.5-1.5-6.9h-2.9c-1.9 2.8-3.3 4.3-5.7 6.5l-6.7-3.7c3.1-2.9 6.4-6.2 10.1-14.3l7.3 1.9c.4.1.7.3.7.7 0 .4-.1.5-1.1 1-.4.3-.5.4-1.1 1.6h15.7v5.6c1.2-1.6 4-5.5 5.4-10l7.7 1.6c.4.1.7.4.7.7 0 .2-.1.5-.3.6-.1.1-1 .4-1.1.6-.1.1-.4.9-.5 1h19.5v6.3h-12.1c.8 2.5 1 3.7 1.5 6.1l-7.3.9c-.4-3.1-1.2-5.8-1.6-7h-3.5c-2.3 3.6-3.4 4.9-4.5 6.1l1 .4c.2.1.3.3.3.4s-.1.4-.4.7c-.4.4-.4.5-.4 1.6h23.4v5.9h-23.4v4h28v6.3h-12.9zm36 22.1l-5.8 2.3c-1.2-1.9-1.8-3.1-2.7-5.8-2.2-6.8-3-13.6-3-19.3 0-4.7.6-10.1 1.1-14.4 1-7.9 2-12.4 3.1-16.7l7.5 2.7c.5.2 1.9.7 1.9 1.3 0 .1-.1.4-.4.7-.1.1-1.1.4-1.2.5-1.1.7-4.2 13.9-4.2 25 0 1.2 0 6.9 1 10 .9-1.5 1.3-2.3 2.9-5.1l4.3 2.3c-2.7 6-3.8 11.8-4.5 16.5zm26.2-2.1c-13.3 0-16.1-3.6-16.3-16l8-1.1c.1 7 .8 8.9 8.2 8.9 8.3 0 14.1-1.5 16.7-2.3v9.1c-4 .6-8.9 1.4-16.6 1.4zm-5.9-37.7c-.6 0-4 0-7.8-.4v-8.1c2.1.3 5.4.8 9.4.8 8.6 0 14.6-2 17.4-3V32c-3.5.8-10.8 2.2-19 2.2zm-809.9 133c-10.2-2.2-19.7-7.2-25.9-15.6-4.2 7.3-13.5 13.3-26.1 15.7l-5.6-8c7.5-.5 18.2-2.9 23.3-9.9h-23.3v-7.6h26.9c.2-1.2.4-2.5.6-4.3l7.4.4-5.5-3.2c5.5-3.7 10.5-10.1 10.7-21.4h-7.4v-7.5h28.9c0 7.9-.2 15.9-1.5 23.7-1.2 7.9-6.1 10.2-13 10.3l-3.2-8.7c.5.1 2.1.4 3.1.4 2 0 4.2-.7 5-2.9 1-2.7 1.4-14.2 1.4-15.4h-5.8c-.2 8.9-2.7 18.8-10.6 25.4.3.1.6.2.6.6 0 .1 0 .2-.6.6-.7.5-.7.5-1.2 2h27.2v7.6h-22.3c1 1.2 2.9 3.7 8.8 6.2 3.2 1.4 7.8 2.9 14.4 3.7l-6.3 7.9zm-27-34.8c-11.2 2.9-20.1 4.7-24.8 5.6-.9.2-1.1.6-1.5 1.1-.5 1-.7 1.2-1.1 1.2-.6 0-1-.4-1.5-2.3l-1.6-7c5.6-.5 8.5-.9 12.4-1.4v-5.1h-8.5v-7h8.5v-4.2h-11.6v-7h11.6v-3.5h6.7c1.2 0 3.6 0 3.6.9 0 .2-.1.7-.9 1.2-.8.7-.8.7-.8 1.4h9.6v7h-9.6v4.2h7v7h-7v3.8c4.2-.7 6.4-1 10-1.8l-.5 5.9zm51.2 14c-.4 6.1-.8 9.9-2.9 15.2l-6.3-1.7c1.4-3.9 2.6-8.3 3.1-16.5l6 1.1c.4.1 1.3.3 1.3.7 0 .3-.4.6-1.2 1.2zm15.2-6.6c-.1-.7-.3-1.6-.6-3-2.6.7-3.6.7-4.8 1V166h-7.5v-27.2c-2.6.3-5.6.6-6.5.7-.5 0-1 .1-1.6.7-.6.6-.8.8-1.2.8-.2 0-.6-.3-.7-.7l-1.5-8.5c3.1 0 4.8 0 7.8-.1.7-.9 1.8-2 2.9-3.4-3.7-4.2-6.8-6.5-10.2-8.8l4.5-6.1c1.2.8 1.8 1.3 2.5 1.9 3.1-4.5 4.8-8 6.7-12.3l6.5 3.5c.4.2.5.5.5.7 0 .2-.1.4-.4.6-1 .4-1.2.6-1.3.8-3.7 5.6-4.3 6.5-7.5 10.7 1.2 1.2 2.1 2.1 3 3.4 4.2-5.9 6.2-9.1 8-12.1l6.7 4c.4.2.5.7.5.8 0 .7-.7.8-.8.8-1.2.1-1.2.2-2.3 1.5-3.7 4.8-7.7 9.4-11.8 13.8 2.3-.1 3.9-.3 7-.7-.4-1.3-.7-2.9-1.2-4.2l6.6-1.5c1.5 4.3 2.6 8.4 3.4 12.9l-6.7 1.8zm.6 17.8c-1.5-5.5-2.3-9.2-2.9-14.1l5.9-1.2c.9 6.4 2.2 11.1 3.1 13.7l-6.1 1.6zm34 1.2c-2 5.9-6 6.8-10.8 6.8h-3.1l-4-8.6c1.5.1 3.9.4 6.5.4 2.3 0 3.8-.6 5.2-5.2 1.5-4.8 2.8-14.6 2.8-25.8v-5h-16.6c-2.1 3.7-3.4 5.7-5.5 8l-5.7-4.6c3.3-4.2 6.8-9.4 10.8-21.5l7.8 2.6c.4.1.7.4.7.7 0 .4-.2.6-.5.7-1.1.5-1.2.6-1.5 1.5-.9 2.3-1 2.9-1.9 4.6h20.1v13.7c-.1 10.6-1.6 24.1-4.3 31.7zm-17.4-12.3c-2.1-7-4.1-11.2-5.7-14.4l6.6-2.6c1.8 3.6 3.7 7.9 5.7 14.9l-6.6 2.1zm65.2-21.7c-5.4 5.4-8.9 12-8.9 17.6 0 5.1 3.2 8.1 5.3 9.5 4.8 3.4 9.9 3.6 12.9 3.7l-2.9 8.9c-3.9-.7-12.1-2.2-18-8.1-3.5-3.4-5.4-8.2-5.4-13.2 0-4.9 1.8-9.8 5-14.6 3.4-5.3 7.1-8.8 9.7-11.1-9.8.8-20.6 1.7-27.9 2.7l-1.2-8.2c15.8.1 38.5-1.6 52.3-5.9v8.5c-3.6.3-11.6.8-20.9 10.2zm15.3 12.5c-1.6-2-3.1-3.4-6-5.6l3-3.5c2.4 1.8 4.2 3.4 6.1 5.6l-3.1 3.5zm5.9-6.7c-1.9-2.2-3.7-3.8-6.1-5.6l3.1-3.5c3.1 2.3 4.5 3.8 6.1 5.6l-3.1 3.5zm51.3-.1c4.5 8.6 6.9 11.8 9.7 15.2l-4.5 5.6c-3.5-1.9-10.8-5.6-19.2-5.6-4.8 0-8.9 2-8.9 6 0 6.2 9.5 6.2 12 6.2 7 0 11.1-1.1 14.6-2l-.7 8.6c-2 .3-5.8.9-11.6.9-13.2 0-22.3-4.2-22.3-13.8 0-10 7.9-12.7 16.2-12.7 3.7 0 6.9.5 10.5 1.2-1.8-3.1-2.4-4.5-3.8-7.2-7.7 1.9-14 3.1-23.5 3.2l-2.6-7.4c10.4-.1 15.2-.5 23.1-2.2-1.1-2.5-1.9-4.3-2.6-6-7.4 1.5-11.5 1.9-17.4 2l-2.3-7c7-.1 10.8-.4 17.1-1.5-1.7-4.5-2.5-6.9-3.7-10.3l8.3-1c.6-.1 2.4-.3 2.4.6 0 .4-.2.6-.6 1-.6.6-.7.8-.7 1 0 .5 1.2 4.1 2.2 6.7 5-1.8 7.8-3 12.5-5.6l1.6 7.1c-4.2 2.6-8.2 3.9-11.6 5 1 2.3 1.2 3 2.4 5.6 5.3-2.1 8.3-3.7 13.3-6.6l1.3 7.3c-3.7 2.6-6.7 3.9-11.2 5.7zm50.8 33.3c-9.2 0-13.8-4.6-13.8-10 0-4.2 3.6-9.7 10.8-9.7 7.6 0 12.4 6 14.4 8.6 1.6-1.5 4.8-4.5 4.8-9.7 0-7.2-7.1-9.6-11.9-9.6-3.1 0-6.6.9-8.3 1.8-4.5 2.4-11 8.9-15.1 13.1l-6.2-6.4c7.6-5.7 15.4-12.2 27.1-26.4-4.4 1-8.4 1.8-17.1 1.8l-1.7-8.2c1.8.1 5.9.4 8.2.4 2.8 0 15.2-1 22.2-3.7l3.8 5.9c-4.4 3.7-5.6 4.8-16.3 15.7 2.4-.4 6-.4 7.1-.4 10 0 16.3 8.1 16.3 16.2 0 12-11.4 20.6-24.3 20.6zm-2.8-13.3c-3 0-3.7 2.1-3.7 3.1 0 2.6 3.4 3.3 6 3.3 2.3 0 4-.4 5-.7-.9-1.7-3.1-5.7-7.3-5.7zm66.7-2.6c-2.2-1.6-4.9-3.7-8-7v24.9h-7.7v-20.5c-2.5 2.2-4 3.4-6.4 5l-5.5-5.6c8.1-5 14.8-11.9 19.4-20.3h-16.4v-7.9h8.8v-13l8.5 1c.4.1.8.3.8.7 0 .3-.3.6-.5.7-1 1-1.2 1.2-1.2 1.5v9.2h7.9l3.3 3.3c-1.1 2.8-2.7 6.6-8.1 13.8 3.4 4 5.9 5.9 9.4 8.2l-4.3 6zm-3.6 16.5v-7.9h17.3V132h-11.1v-7.9h11.1v-20.9l9 .9c.4 0 .8.3.8.7 0 .2-.1.5-.4.7-.6.6-1 1-1 1.2v17.4h13.4v7.9h-13.4v24.5h15.2v7.9h-40.9zm108-34.5c-3.7-1.2-6.2-2.6-8.4-3.9v6.2h-35.3v-6c-3.7 2.3-5.9 3.4-9.2 4.8l-5.6-6.4c12.4-4.9 20.1-11.7 26.7-22.3l10.5 1.8c.6.1 1.1.4 1.1 1 0 .4-.3.8-.7 1 3.6 4.1 7.8 7.6 12.4 10.5 2.6 1.5 8.4 4.8 14.2 6.4l-5.7 6.9zm-4.8 36.6c-.7-1.1-1.6-2.7-4.8-6.5-10 1.2-26.5 3.1-28.6 3.3-1.5.1-9.3.8-11.1 1.1-.4.1-.6.2-.7.5-.4.9-.7 1.1-.9 1.1s-.6-.3-.7-.7l-2.3-9.6c4.6 0 6.7-.1 10.3-.2 1.8-2.9 3.4-5.5 6.7-11.8h-16.6v-7.1h53.8v7.1H3724c6.3 5 12.7 11.7 17.1 17.3l-6.7 5.5zm-21.7-55.9c-5.3 6.4-9.2 10-15.2 14.3h31.5c-6.2-4-10.6-7.4-16.3-14.3zm5.2 38.5l5.3-5.3h-11c-3.4 6.1-5.6 9.3-6.9 11.3 6.2-.3 12.2-.7 18.3-1.4-1-1-2.7-2.7-5.7-4.6zm72.5-10.1c0 2.9.1 11.9.1 14.4h-8.5c.2-4.2.3-7.8.4-11-2.8 1.4-10.4 5.2-10.4 10.3 0 4.8 5.6 5.7 11 5.7 6.3 0 12.5-1 18.7-2.3v8.3c-7 1.1-15.1 1.1-17.4 1.1-4.1 0-12.6 0-17.2-4.9-2.8-2.9-2.8-6.1-2.8-7.2 0-9.1 6.7-12.5 17.7-18.2-.4-2.2-1.3-4.8-5.6-4.8-7.2 0-11.6 6.7-15.6 13.3l-7.2-4.5c5.8-6.2 9.4-11.4 14.4-20.1-4.2.2-6.4.3-9.5.3l-.9-7.6c4.4.4 7.6.5 14 .3 1.8-4 2.8-6.5 3.7-9.7l9.2 1.6c.2.1 1.5.2 1.5.7 0 .4-.3.7-.7.8-.1.1-1.6.7-1.7.7-.1.1-1.9 4.2-2.3 5 6.7-1.1 10-2.1 14.3-3.7l-.5 8.2c-6.6 1.5-12.6 2.2-17.5 2.8-2.3 4.3-2.9 5.3-4.2 7.2 1-.4 3.1-1.5 6.3-1.5 5.1 0 8.3 2.6 10 7.4 8.6-4 9.5-4.5 13-6l2.5 8.3c-5.9 1.8-9.4 3.1-14.8 5.1zm55.7 27.3v-2.1h-12.4v2.1h-7v-12.6c-1 2.8-2.1 5.6-4.8 9.5l-7.5-3.4c2-2.3 5.2-5.9 7.2-12.2 1.8-5.7 1.8-8.3 1.8-23.9h29.5v19.9h-23.1c-.3 1.5-.4 1.8-.5 2.2h23.8v20.4h-7zm5.8-48.3c-1.2-.4-2.5-.9-4.2-1.8v5.8h-18.8v-3.7c-3.5 2.7-5.6 4-7.1 4.8l-5.4-5.6c6.8-2.9 13.8-8.8 16.5-14.9l8 .5c.1 0 1.6.1 1.6.9 0 .1-.1.3-.1.4 3.7 3.4 8.9 5.9 13.7 7.8l-4.2 5.8zm-6.3 17.7h-15c-.1 1.2-.1 1.4-.2 2.7h15.2v-2.7zm0-6.9h-14.9v2.4h14.9v-2.4zm-7.6-19c-2.5 2.9-3.7 4-6 6h14.9c-4.3-2.3-6.7-4.1-8.9-6zm8.1 41.7h-12.4v6.8h12.4v-6.8zm20.7-36.8c-1.1.8-1.2.8-1.2 1.1v33.5h-7.3v-37.1l7.1.7c.7.1 1.9.3 1.9 1.2 0 .2-.2.4-.5.6zm12.3-8.2c-.2.1-.9.6-.9 1v49.9c0 7-3.7 7.7-11.8 7.8l-3.9-8.5c1.5.1 4.8.1 6.3.1.6 0 1.6 0 1.6-1.9v-51.6l7.5.9c.5.1 2 .3 2 1.2.1.3-.1.6-.8 1.1zm37.2 57.3c-9.2 0-13.8-4.6-13.8-10 0-4.2 3.6-9.7 10.8-9.7 7.6 0 12.4 6 14.4 8.6 1.6-1.5 4.8-4.5 4.8-9.7 0-7.2-7.1-9.6-11.9-9.6-3.1 0-6.6.9-8.3 1.8-4.5 2.4-11 8.9-15.1 13.1l-6.2-6.4c7.6-5.7 15.4-12.2 27.1-26.4-4.4 1-8.4 1.8-17.1 1.8l-1.7-8.2c1.8.1 5.9.4 8.2.4 2.8 0 15.2-1 22.2-3.7l3.8 5.9c-4.4 3.7-5.6 4.8-16.3 15.7 2.4-.4 6-.4 7.1-.4 10 0 16.3 8.1 16.3 16.2 0 12-11.4 20.6-24.3 20.6zm-2.8-13.3c-3 0-3.7 2.1-3.7 3.1 0 2.6 3.4 3.3 6 3.3 2.3 0 4-.4 5-.7-.9-1.7-3.1-5.7-7.3-5.7zm1771.2-83.6c-4.4 1.5-8.9 3-13.3 4.4-.7.2-4.2 1.2-5 1.4-1.7.5-2.3.7-2.9 1.3-.4.5-.7.9-1.1.9-.3 0-.6-.2-.6-.5l-1.5-9.2c2.9-.5 6.1-1.2 8.6-1.8v-22h-7.9v-8.1h7.9V16.7l8.6.4c.4 0 .9.2.9.7 0 .4-.6.7-.7.9-.4.2-.9.5-.9 1v13.7h7v8.1h-7v19.8c4.2-1.2 5.6-1.6 8-2.3l-.1 7.9zm31 11.8H5700c-6 0-10.8-2.9-10.8-9V50.4l-6.9 2.8-2.3-7.5 9.2-3.6V21l8.3.8c.4.1.9.2.9.7 0 .4-.2.7-.5.9-.5.4-.8.7-.8 1.1V39l4.8-1.9V16.4l8.5.7c.5.1.9.3.9.7 0 .3-.2.6-.4.8-.4.4-1.1.8-1.1 1.2V34l10.4-4.2 3.8 2v24.6c0 6.5-5.6 7-9.7 7l-4.4-7.4c1.3.2 2.6.4 3.9.4 2.1 0 2.2-2.1 2.2-2.6V39.9l-6.2 2.5v21.7h-7.8V45.4l-4.8 1.9v19.2c0 3.7 1.2 4.4 3.4 4.4h13c3.1 0 3.9-2.8 4.5-5.6l7.7 3c-1.5 4.1-3.5 10.4-10.1 10.4zm50-43.8c-.1 2.6-.3 4.8-.7 7.6h22.6c.2 9 .4 16.6-1.8 24.4-2.6 9.6-6.5 12.3-16.6 12.6l-3.8-8.1c1.7.1 2.9.2 5.6.2 2.9 0 4.5-.6 5.9-3.6 1.4-3 2.5-9.7 2.1-18.1h-15.7c-1.5 4.9-3.4 10.7-8.8 17.4-5.1 6.3-10 9-14.3 11.5l-6.5-6.2c5.4-2.6 11.9-5.9 17.2-14.2 5.6-8.9 5.7-16.7 5.8-23.4h-22.6v-7.8h26.6V16.7l9.4.7c.3 0 1.3.2 1.3.9 0 .4-.9 1-1.6 1.7v7.1h26.6v7.8h-30.7zm83.9 44.1v-3.8h-31.4V79h-8.5V24.8h13.7c1.8-3.9 2.3-6.7 2.6-8.4l10 1c.7.1 1.1.4 1.1.8s-.4.7-.7.8c-1.3.7-1.5.8-1.9 1.4-.1.2-1.7 3.8-2 4.5h25.6V79h-8.5zm0-46.8h-31.4v6.6h31.4v-6.6zm0 13.7h-31.4v7.2h31.4v-7.2zm0 14.3h-31.4V68h31.4v-7.8zm30.6-12.4c-1.8-1.5-4.3-3.6-10.5-6.7l4.3-6.4c2.7 1.2 7 3.4 10.8 6.5l-4.6 6.6zM5883 73c-.4 1-2.6 4.8-2.6 5.4 0 .1.1 1 .1 1.1s0 .4-.4.4-1-.3-1.9-1l-6.1-4.5c4.8-6.5 8.1-13.9 11-21.5l6.7 4.9c-2.8 7.2-5.9 13.3-6.8 15.2zm2.6-43.2c-2.7-2.3-6.1-4.8-10.2-7l5-6.4c6.4 3.6 8.6 5.4 10.7 7.1l-5.5 6.3zm44.4 18.3c-1.4-2.6-1.6-3-3.1-5.7-8.9 1.2-17.8 2.1-26.7 2.9-.6.1-3.7.2-4.5.2-1.4.1-1.5.1-1.9.6-.8.9-.9 1-1.2 1-.5 0-1-1.2-1-1.3l-2.3-8.3h6.4c3.7-6.5 7.5-15.6 9.8-22l7.4 2.9c1.5.6 2.3 1 2.3 1.8 0 .6-.4.8-1.1 1-1 .1-1.1.3-1.8 1.7-2.5 4.8-5.1 9.7-7.7 14.4 3.7-.2 11.9-.6 18.1-1.5-2.5-3.7-3.7-5-4.8-6.1l6.8-4.5c5.5 6.4 10 14.3 12.4 18.7l-7.1 4.2zm-7.6 30.3v-2.5h-19.3v2.8h-8.4V50.3h36v28.1h-8.3zm0-20.7h-19.3v10.7h19.3V57.7zm84.3 9.3c-6.7-6.6-10.4-11.3-14.7-18.7v12.4h7.5V68h-7.5v11.1h-7.9v-11h-7.2v-7.3h7.2V47.3c-4.5 8.3-7.9 13-14.6 19.8l-7.5-3.8V79h-8V45.5c-1.4 2.1-2.6 3.4-3.3 4.2l-6.4-4.5c4.5-5.3 11.3-14.1 16.5-27.9l7.5 2.3c1.2.4 1.7.7 1.7 1.3 0 .5-.4.7-.6.7-1.5.4-1.6.5-1.8 1-1.8 3.8-2.5 5.1-4.9 9.3.7.4 1.4.9 1.4 1.6 0 .5-.4.9-.7 1.2-1.1.8-1.3 1-1.3 1.3v27c8.1-6.2 14.3-16.4 18.4-26.5h-13.1v-7.1h16.8V16.9l8.1.4c.4 0 1.4.1 1.4.9 0 .2-.1.6-.5.9-.9.7-1 .8-1 1.2v9.2h18.7v7.1h-16.4c3.5 7.8 8.2 16.7 19 25.1l-6.8 5.3zm63.1-35.3l-17.4 17.4 17.4 17.5-5.3 5.3-17.5-17.4-17.4 17.5-5.3-5.3 17.4-17.5-17.4-17.4 5.3-5.3 17.4 17.4 17.4-17.4 5.4 5.2zm69.6 47.2c-2.6 0-5.3-1.4-7.4-2.6-13.3-7.5-16.5-17.6-18.4-23.6h-16.3v13.9c8-1.5 9-1.8 17.1-3.8l-.5 6.6c-8.3 2.7-16.6 5.1-25.1 7.2-1.7.4-1.8.4-2.4 1.2-.6.6-.8.9-1.1.9-.4 0-.5-.4-.6-.6l-2-9c2.8-.2 3.6-.3 6.3-.8V19.1h49.8v20.4h-18.4c0 1.1 0 2.8.4 5.9h23v7.3h-21.6c1.2 3.3 3.1 8.7 8.3 13 .7.6 3.9 3.2 5.9 3.2 1.8 0 2.4-4.7 2.7-6.9l6.7 4.5c-1.6 11.7-4.5 12.4-6.4 12.4zm-9.2-52.4h-32.8v5.9h32.8v-5.9zm-18.7 13h-14.1v5.9h14.8c-.6-3.6-.6-4.4-.7-5.9zm52.8 1.9v38.1h-7.9V18h27.5v23.4h-19.6zm11.7-17.6h-11.6v3.3h11.6v-3.3zm0 8.3h-11.6v3.6h11.6v-3.6zm3.4 38.7v2.6h-7.5V45.6h29.4v25.3h-21.9zm14.4-19.5h-14.3v4h14.3v-4zm0 9.6h-14.3v4.2h14.3v-4.2zm15.1 18.8h-3.5l-4-8.1c1.2.1 2.8.3 4.2.3 1.3 0 2.6-.3 2.6-2.9V41.4h-19.9V18h27.8v53c.1 6.5-1.9 8.7-7.2 8.7zm-.6-55.9h-11.9v3.3h11.9v-3.3zm0 8.3h-11.9v3.6h11.9v-3.6zM6287 44c-13.6-4.8-22.2-12.7-28.4-19.7-6.6 9.4-16 16.1-26.1 21.4l-7-7.3c12-4.5 21.6-11.7 28-22.4l9.6 1.3c.8.1 1.3.6 1.3 1.2 0 .1-.1.4-.1.4 3.6 4.3 7.8 8.1 12.4 11 5.6 3.6 10.2 5.4 16.7 7.2L6287 44zm-56.7 35.8v-8.1h9.8V47.3l7.9.8c.5 0 1.4.1 1.4.9 0 .2 0 .4-.5.9-.2.1-.7.5-.7 1v20.7h7.5V33.3l8.2.8c1 .1 1.8.3 1.8 1 0 .4-.6.8-.9 1-.2.1-.8.6-.8 1v12.4h15.7v8.3H6264v13.8h23.4v8.1h-57.1zm111.1-18.3c6.5 6.3 12 8.9 20.2 11.3l-5.6 6.4c-12.4-5.1-17.6-10.3-20.9-13.8v13.8h-7.9v-13c-5.5 5-11.2 9.5-20.1 13.8l-6.7-5.9c7.8-3 13-5.7 21-12.4h-21V55h26.8v-3.1h-18.7V46h18.7v-3.1h-23.4v-6.3h13.7c-1.8-3-2-3.4-2.8-4.4h-14.3v-6.1h10.8c-1.4-2-3.1-4.1-4.8-5.9l6.1-3.8c1.8 1.8 4 4.2 6.2 7.8l-3.1 1.9h5.8v-9.6l8.1 1.1c.2 0 .7.3.7.7 0 .4-.4.7-.6 1-.4.3-.7.7-.7 1.2v5.7h5.1v-9.3l7.9 1c.4.1.8.2.8.7 0 .3-.2.5-.6.7-.2.1-.6.4-.6.8v6.1h4.6l-2.4-1.2c2.2-3.4 3.4-6.4 4.2-8.1l7.3 3.7c.2.1.5.3.5.6s-.3.6-.4.7c-.2.1-1.2.4-1.5.7-.1.1-2.2 3.2-2.6 3.8h10.7v6.1h-14.3c-1 1.8-1.7 2.9-2.6 4.4h13.5v6.3h-23.3v3.1h19.1v5.9h-19.1v3.1h26.9V62h-20.7zm-18-29.6c1 1.8 1 2 2.3 4.4h10.9c.9-1.4 1.6-3.1 2.2-4.4h-15.4zm62.5 42.1l-5.8 2.3c-1.2-1.9-1.8-3.1-2.7-5.8-2.2-6.8-3-13.6-3-19.3 0-4.7.6-10.1 1.1-14.4 1-7.9 2-12.4 3.1-16.7l7.5 2.7c.5.2 1.9.7 1.9 1.3 0 .1-.1.4-.4.7-.1.1-1.1.4-1.2.5-1.1.7-4.2 13.9-4.2 25 0 1.2 0 6.9 1 10 .9-1.5 1.3-2.3 2.9-5.1l4.3 2.3c-2.7 6-3.8 11.8-4.5 16.5zm26.2-2.1c-13.3 0-16.1-3.6-16.3-16l8-1.1c.1 7 .8 8.9 8.2 8.9 8.3 0 14.1-1.5 16.7-2.3v9.1c-4 .6-8.9 1.4-16.6 1.4zm-5.9-37.7c-.6 0-4 0-7.8-.4v-8.1c2.1.3 5.4.8 9.4.8 8.6 0 14.6-2 17.4-3V32c-3.5.8-10.9 2.2-19 2.2zm82.7 40.3c-5-3.8-8.6-6.2-15.2-8.9.4 7.2-1.8 11.4-13.8 11.4-13.3 0-17.4-5.3-17.4-10.3 0-6.4 6.4-11.4 17.1-11.4 2.4 0 4.2.2 5.3.4-.5-17-.4-18.9-.4-31.7v-5.2l8.8 1.2c.4.1 1.8.3 1.8 1 0 .3-.1.4-1 1-.4.3-.8.5-.9 1.1-.1 1-.4 6.3-.4 8.9 1 .1 1.5.1 3.1.1 8.6 0 12.6-1.6 14.9-2.5V38c-5.3 1.3-10 1.8-13.3 1.8-1.5 0-3.4-.1-4.9-.2-.1 6.2-.1 8.6.5 17.9 8.4 2.6 13.3 5 20.4 9.7l-4.6 7.3zm-30.2-12.2c-4.6 0-7.2 1.7-7.2 3.8 0 3.1 5.4 3.7 7.8 3.7 5.9 0 5.8-3.7 5.8-6.9-1.3-.1-3.7-.6-6.4-.6zm69.8 15c-9.2 0-13.8-4.6-13.8-10 0-4.2 3.6-9.7 10.8-9.7 7.6 0 12.4 6 14.4 8.6 1.6-1.5 4.8-4.5 4.8-9.7 0-7.2-7.1-9.6-11.9-9.6-3.1 0-6.6.9-8.3 1.8-4.5 2.4-11 8.9-15.1 13.1l-6.2-6.4c7.6-5.7 15.4-12.2 27.1-26.4-4.4 1-8.4 1.8-17.1 1.8l-1.7-8.2c1.8.1 5.9.4 8.2.4 2.8 0 15.2-1 22.2-3.7l3.8 5.9c-4.4 3.7-5.6 4.8-16.3 15.7 2.4-.4 6-.4 7.1-.4 10 0 16.3 8.1 16.3 16.2 0 12-11.4 20.6-24.3 20.6zm-2.8-13.4c-3 0-3.7 2.1-3.7 3.1 0 2.6 3.4 3.3 6 3.3 2.3 0 4-.4 5-.7-.9-1.6-3.1-5.7-7.3-5.7zm-841 89.5c-4.4 1.5-8.9 3-13.3 4.4-.7.2-4.2 1.2-5 1.4-1.7.5-2.3.7-2.9 1.3-.4.5-.7.9-1.1.9-.3 0-.6-.2-.6-.5l-1.5-9.2c2.9-.5 6.1-1.2 8.6-1.8v-22h-7.9v-8.1h7.9v-16.6l8.6.4c.4 0 .9.2.9.7 0 .4-.6.7-.7.9-.4.2-.9.5-.9 1v13.7h7v8.1h-7v19.8c4.2-1.2 5.6-1.6 8-2.3l-.1 7.9zm31 11.9H5700c-6 0-10.8-2.9-10.8-9V137l-6.9 2.8-2.3-7.5 9.2-3.6v-21.2l8.3.8c.4.1.9.2.9.7 0 .4-.2.7-.5.9-.5.4-.8.7-.8 1.1v14.5l4.8-1.9v-20.7l8.5.7c.5.1.9.3.9.7 0 .3-.2.6-.4.8-.4.4-1.1.8-1.1 1.2v14.3l10.4-4.2 3.8 2V143c0 6.5-5.6 7-9.7 7l-4.4-7.4c1.3.2 2.6.4 3.9.4 2.1 0 2.2-2.1 2.2-2.6v-13.9l-6.2 2.5v21.7h-7.8V132l-4.8 1.9V153c0 3.7 1.2 4.4 3.4 4.4h13c3.1 0 3.9-2.8 4.5-5.6l7.7 3c-1.5 4.2-3.5 10.5-10.1 10.5zm50-43.9c-.1 2.6-.3 4.8-.7 7.6h22.6c.2 9 .4 16.6-1.8 24.4-2.6 9.6-6.5 12.3-16.6 12.6l-3.8-8.1c1.7.1 2.9.2 5.6.2 2.9 0 4.5-.6 5.9-3.6 1.4-3 2.5-9.7 2.1-18.1h-15.7c-1.5 4.9-3.4 10.7-8.8 17.4-5.1 6.3-10 9-14.3 11.5l-6.5-6.2c5.4-2.6 11.9-5.9 17.2-14.2 5.6-8.9 5.7-16.7 5.8-23.4h-22.6v-7.8h26.6v-10.4l9.4.7c.3 0 1.3.2 1.3.9 0 .4-.9 1-1.6 1.7v7.1h26.6v7.8h-30.7zm70.2 44.9v-2.1h-12.4v2.1h-7v-12.6c-1 2.8-2.1 5.6-4.8 9.5l-7.5-3.4c2-2.3 5.2-5.9 7.2-12.2 1.8-5.7 1.8-8.3 1.8-23.9h29.5v19.9h-23.1c-.3 1.5-.4 1.8-.5 2.2h23.8v20.4h-7zm5.8-48.3c-1.2-.4-2.5-.9-4.2-1.8v5.8h-18.8v-3.7c-3.5 2.7-5.6 4-7.1 4.8l-5.4-5.6c6.8-2.9 13.8-8.8 16.5-14.9l8 .5c.1 0 1.6.1 1.6.9 0 .1-.1.3-.1.4 3.7 3.4 8.9 5.9 13.7 7.8l-4.2 5.8zm-6.3 17.7h-15c-.1 1.2-.1 1.4-.2 2.7h15.2v-2.7zm0-6.9h-14.9v2.4h14.9v-2.4zm-7.6-19c-2.5 2.9-3.7 4-6 6h14.9c-4.3-2.3-6.7-4.1-8.9-6zm8.1 41.7h-12.4v6.8h12.4v-6.8zm20.8-36.8c-1.1.8-1.2.8-1.2 1.1v33.5h-7.3v-37.1l7.1.7c.7.1 1.9.3 1.9 1.2 0 .2-.2.4-.5.6zm12.3-8.2c-.2.1-.9.6-.9 1v49.9c0 7-3.7 7.7-11.8 7.8l-3.9-8.5c1.5.1 4.8.1 6.3.1.6 0 1.6 0 1.6-1.9v-51.6l7.5.9c.5.1 2 .3 2 1.2 0 .3-.2.6-.8 1.1zm11 57.8v-7.2h27.4v-13.9h-16.7v-7.6h16.7v-11.8h-15.7c-1.8 3.4-3.7 6.7-6.7 11.1l-7.8-4.2c2.7-3.2 4.5-5.3 6.9-9.8 3.8-7.1 5.1-11.9 6.2-16.4l7.7 2.1c1.5.4 1.9.7 1.9 1.2 0 .4-.2.7-.9 1-1.1.5-1.2.9-1.5 1.5-.4 1.5-1 3.3-2.2 6.1h12.2v-13l8.9.4c1.2.1 1.8.4 1.8 1.1 0 .4-.2.7-.8 1-.9.5-1.1.9-1.1 1.4v9h23.2v7.4h-23.2v11.8h16.3v7.6h-16.3V157h26.4v7.2H5880zm124.1-14.3c-5.5 8.1-13.1 11.3-17.1 12.9l-5.4-7.5c3.3-1 8.7-2.5 13.2-7.8s5.3-11.3 5.3-14.6c0-4-1.2-8.9-5.3-12.8-4.6-4.4-9.7-4.7-12.4-4.9-2.3 17.4-6.7 27.7-9.1 32.6-2.2 4.5-5.6 10.7-9.4 10.7-2.6 0-14.6-6.6-14.6-19.7 0-16.3 13.4-31 32.3-31 15.2 0 27.2 10.3 27.2 26.6 0 6.4-2 11.5-4.7 15.5zm-39.4-28.2c-5.2 5-7.3 11.8-7.3 16.3 0 5.9 3.4 9 4.7 9 3.8 0 10.1-19.1 11.6-30.5-2.1.7-5.4 1.8-9 5.2zm85.4 14.4v12.6c0 3.9 2.7 4.9 9.5 4.9 5.6 0 9.7-.4 12.6-.8v8.7c-1.9.1-11.1.2-15.3.2-7 0-15.2-.4-15.2-10.8v-14.8h-20.4v-7.7h20.4v-13.3h-13.5v-7.7h42.2v7.7h-20.3v13.3h25.1v7.7h-25.1zm71.5-3.2c-.4 17.4-7 26-21.2 32.4l-6.9-6.1c12.9-4.5 19.2-10.5 19.5-26.2h-24.5v-7.6h55v7.6h-21.9zm-23.1-18.2v-8h35.8v8h-35.8zm48 4.5c-3.3-2.9-5.8-4.3-7.7-5.5l2.8-4.1c3.2 1.8 5.1 3.2 7.7 5.5l-2.8 4.1zm2.1-9.3c-1.2-1.2-2.6-2.3-7.4-5l2.7-4c4.8 2.7 6.2 3.9 7.4 5l-2.7 4zm25.5 3.1c-.5.4-.5.6-.5 1 0 13.7 0 14.8-.4 18-1.8 15.2-10.5 22.3-15.8 26.6l-8.1-5.9c7-4.1 15.7-10.3 15.7-28.6 0-6.8-.5-11.6-.8-13.8l8.9.6c1.3.1 2.1.3 2.1 1.1 0 .1-.2.2-1.1 1zm13.6 45.6l-6.2-4.8v-44.4l8.5 1c.7.1 2 .2 2 1 0 .3-.1.5-.8 1.1 0 .1-.9.8-.9.9v32c6.3-3.4 14.6-11.6 19.3-18.7l5 7.4c-7.1 9.5-18.1 19.6-26.9 24.5zm73.6-19.7c0 2.9.1 11.9.1 14.4h-8.5c.2-4.2.3-7.8.4-11-2.8 1.4-10.4 5.2-10.4 10.3 0 4.8 5.6 5.7 11 5.7 6.3 0 12.5-1 18.7-2.3v8.3c-7 1.1-15.1 1.1-17.4 1.1-4.1 0-12.6 0-17.2-4.9-2.8-2.9-2.8-6.1-2.8-7.2 0-9.1 6.7-12.5 17.7-18.2-.4-2.2-1.3-4.8-5.6-4.8-7.2 0-11.6 6.7-15.6 13.3l-7.2-4.5c5.8-6.2 9.4-11.4 14.4-20.1-4.2.2-6.4.3-9.5.3l-.9-7.6c4.4.4 7.6.5 14 .3 1.8-4 2.8-6.5 3.7-9.7l9.2 1.6c.2.1 1.5.2 1.5.7 0 .4-.3.7-.7.8-.1.1-1.6.7-1.7.7-.1.1-1.9 4.2-2.3 5 6.7-1.1 10-2.1 14.3-3.7l-.5 8.2c-6.6 1.5-12.6 2.2-17.5 2.8-2.3 4.3-2.9 5.3-4.2 7.2 1-.4 3.1-1.5 6.3-1.5 5.1 0 8.3 2.6 10 7.4 8.6-4 9.5-4.5 13-6l2.5 8.3c-5.9 1.8-9.4 3.1-14.8 5.1zm55.7 27.3v-2.1h-12.4v2.1h-7v-12.6c-1 2.8-2.1 5.6-4.8 9.5l-7.5-3.4c2-2.3 5.2-5.9 7.2-12.2 1.8-5.7 1.8-8.3 1.8-23.9h29.5v19.9h-23.1c-.3 1.5-.4 1.8-.5 2.2h23.8v20.4h-7zm5.8-48.3c-1.2-.4-2.5-.9-4.2-1.8v5.8h-18.8v-3.7c-3.5 2.7-5.6 4-7.1 4.8l-5.4-5.6c6.8-2.9 13.8-8.8 16.5-14.9l8 .5c.1 0 1.6.1 1.6.9 0 .1-.1.3-.1.4 3.7 3.4 8.9 5.9 13.7 7.8l-4.2 5.8zm-6.3 17.7h-15c-.1 1.2-.1 1.4-.2 2.7h15.2v-2.7zm0-6.9h-14.9v2.4h14.9v-2.4zm-7.6-19c-2.5 2.9-3.7 4-6 6h14.9c-4.3-2.3-6.7-4.1-8.9-6zm8.1 41.7h-12.4v6.8h12.4v-6.8zm20.7-36.8c-1.1.8-1.2.8-1.2 1.1v33.5h-7.3v-37.1l7.1.7c.7.1 1.9.3 1.9 1.2 0 .2-.2.4-.5.6zm12.3-8.2c-.2.1-.9.6-.9 1v49.9c0 7-3.7 7.7-11.8 7.8l-3.9-8.5c1.5.1 4.8.1 6.3.1.6 0 1.6 0 1.6-1.9v-51.6l7.5.9c.5.1 2 .3 2 1.2.1.3-.1.6-.8 1.1zm37.2 57.3c-9.2 0-13.8-4.6-13.8-10 0-4.2 3.6-9.7 10.8-9.7 7.6 0 12.4 6 14.4 8.6 1.6-1.5 4.8-4.5 4.8-9.7 0-7.2-7.1-9.6-11.9-9.6-3.1 0-6.6.9-8.3 1.8-4.5 2.4-11 8.9-15.1 13.1l-6.2-6.4c7.6-5.7 15.4-12.2 27.1-26.4-4.4 1-8.4 1.8-17.1 1.8l-1.7-8.2c1.8.1 5.9.4 8.2.4 2.8 0 15.2-1 22.2-3.7l3.8 5.9c-4.4 3.7-5.6 4.8-16.3 15.7 2.4-.4 6-.4 7.1-.4 10 0 16.3 8.1 16.3 16.2 0 12-11.4 20.6-24.3 20.6zm-2.8-13.3c-3 0-3.7 2.1-3.7 3.1 0 2.6 3.4 3.3 6 3.3 2.3 0 4-.4 5-.7-.9-1.7-3.1-5.7-7.3-5.7z"></path></svg>