<svg xmlns="http://www.w3.org/2000/svg" class="m--sg" viewBox="0 0 4739 178"><path d="M143.1 35.1c-2.8.2-3.2.6-5.8 3.4-9.3 10.5-19.8 20.2-30.8 29v99.3H83.2v-82c-12.7 8.4-25.2 16.2-47 26.5L20.1 94.7C59 79.4 100 48.8 128.1 15.5l16.2 13.4c.7.6 3.2 3 3.2 4.5 0 1.3-.7 1.5-4.4 1.7zM285 37.3c-2.4 1.1-2.6 2-4.5 7.6-22.2 70.2-54.2 95.2-88.1 115l-20.1-14.5c14-7.5 41.7-21.8 63.4-54.6C253 64.1 257.5 39 259.9 26.1l24.2 5.2c.4.2 4.1 1.1 4.1 3.4 0 1.1-.2 1.1-3.2 2.6zm169.9 108.6c-26.1-24.8-40.4-41.9-61.5-66.7-9-10.6-11.2-13.2-16.4-13.2-4.8 0-8 3.7-11.6 8-5.4 6.3-31.3 38.4-37.6 45.3l-19-16.6c13.4-12.7 15.5-15.1 33.7-35.4 19.2-21.6 23.9-25.9 34.7-25.9 12.1 0 17 5.4 26.6 16.2 21.4 24.2 43.6 47.9 67.3 69.9l-16.2 18.4zm-8.2-87c-4.8-5.2-11.6-11.6-17.5-15.3l7.8-9.7c5.8 3.7 12.3 9.7 17.5 15.3l-7.8 9.7zm17.1-19c-6.1-6.5-12.9-11.7-17.5-14.9l7.8-9.5c6 3.5 11.9 8.8 17.7 14.7l-8 9.7zm32 64.7V80.9h132.5v23.7H495.8zm207.6-10.7c-8.8-6-20.3-13.2-36.1-18.1l10.6-18.6c14 4.3 25.9 10.4 37.1 19.2l-11.6 17.5zm56.3 33.2c-25.5 21.4-47 32.1-63.9 40.2-.7.4-1.1.9-1.5 2-.7 2.6-1.1 3.4-1.9 3.4-1.9 0-3.9-3.5-4.7-5l-9.9-17.9c47-19.4 79.9-43.8 111.2-89.3l14.7 17.9c-6.9 10.3-19.4 28-44 48.7zm-36.1-75.6c-11-8.2-22.9-14-36.2-18.1L698 14.7c14.2 4.3 25.9 10.4 36.1 18.1l-10.5 18.7zm203.5 114.7v-6.5h-77.9v-16h77.9v-24.6h-75.3v-16.2h75.3V78.3h-76.8v-16H945v104h-17.9zM1032 64.9c-10.6-8.8-23.3-16.8-38.2-23.5l11.4-17.5c12.3 5.4 27.4 13.4 39.1 23.1L1032 64.9zm54.6 50.7c-29.4 23.9-47.1 31.7-70.3 41.6-.9 2.6-1.3 5.8-2.8 5.8-1.1 0-2.8-1.1-4.1-3.5l-13-22.4c14.9-3.5 39.3-9.9 69.1-32.2 28.5-21.2 46.4-45.8 54.6-57l12.9 18.6c-7.3 9.5-21.8 29.1-46.4 49.1zm214.6 16.5c-14 20.7-33.4 28.7-43.4 32.8l-13.8-19.2c8.4-2.4 22.2-6.3 33.5-19.9 11.4-13.4 13.4-28.9 13.4-37.1 0-10.2-3-22.7-13.4-32.6-11.7-11.2-24.8-11.9-31.7-12.5-6 44.3-17 70.4-23.1 82.9-5.6 11.6-14.2 27.2-23.9 27.2-6.7 0-37.3-16.8-37.3-50.1 0-41.4 34.1-79 82.2-79 38.8 0 69.3 26.3 69.3 67.8.2 16.4-4.9 29.5-11.8 39.7zM1201 60.4c-13.2 12.7-18.6 30-18.6 41.4 0 15.1 8.6 22.9 11.9 22.9 9.7 0 25.7-48.6 29.4-77.7-5.4 1.8-13.8 4.6-22.7 13.4zm211.5 113.1v-5.4H1381v5.4h-17.9v-32.1c-2.4 7.1-5.4 14.3-12.1 24.2l-19.2-8.6c5-5.8 13.2-14.9 18.3-31.1 4.7-14.5 4.5-21.1 4.5-60.7h75.1v50.7h-58.9c-.7 3.9-.9 4.7-1.3 5.6h60.6v52h-17.6zm14.7-122.8c-3.2-.9-6.3-2.2-10.6-4.5V61h-47.9v-9.5c-8.9 6.9-14.3 10.1-18.1 12.3l-13.8-14.2c17.3-7.3 35-22.4 41.9-37.8l20.3 1.3c.4 0 4.1.2 4.1 2.2 0 .4-.2.7-.4 1.1 9.3 8.6 22.5 15.1 34.8 19.8l-10.3 14.5zm-16.1 44.9h-38.2c-.2 3.2-.2 3.5-.6 6.9h38.8v-6.9zm0-17.5h-37.8v6.1h37.8v-6.1zm-19.3-48.3c-6.3 7.3-9.5 10.2-15.3 15.3h38c-11-5.9-17.1-10.6-22.7-15.3zm20.7 106.1H1381v17.3h31.5v-17.3zm52.7-93.6c-2.8 2-3 2-3 2.8v85.3h-18.6V36l18.1 1.7c1.7.2 4.8.7 4.8 3 0 .5-.6 1.1-1.3 1.6zm31.3-21c-.6.4-2.2 1.5-2.2 2.4v127.1c0 17.9-9.3 19.6-30 19.9l-9.9-21.6c3.7.2 12.1.4 16 .4 1.5 0 4.1 0 4.1-4.8V13.3l19 2.2c1.3.2 5.2.7 5.2 3.2 0 .7-.5 1.4-2.2 2.6zm181.5 84c-2.2 2.2-2.6 2.6-2.6 3.7v61.1h-20.9v-8.4h-101v10.4h-20.9v-71l21.8 2c1.7.2 3 .9 3 2.2s-1.1 2.2-1.7 2.6c-2.2 1.7-2.2 1.9-2.2 2.4v31.3h39.3V89.5h-55.3V24.6l22.4 2c.7 0 2 .7 2 1.7 0 1.1-1.1 1.9-1.7 2.2-1.9 1.1-2 2.2-2 2.6v36.1h34.7V13.8l24.6 3.2c1.1.2 2.4.7 2.4 2s-.9 1.7-1.9 2.2c-1.3.6-3 1.5-3 2.6v45.5h34.8V25l22.7 1.5c1.3 0 2.6.6 2.6 1.7s-1.1 1.9-1.3 2c-2 1.5-3.4 2.6-3.4 4.7v54.6h-55.5v52.4h39.5V99.7l22 1.7c1.5.2 2.6 1.1 2.6 1.9.2.9-.6 1.6-1 2zm610.6 21.6c16.6 16 30.6 22.7 51.4 28.7l-14.2 16.2c-31.5-12.9-44.7-26.3-53.3-35.2v35.2h-20.1v-33.2c-14 12.7-28.5 24.2-51.2 35l-17-15.1c19.9-7.6 33.2-14.5 53.5-31.7h-53.5v-17h68.2v-8h-47.7V86.9h47.7v-8H2193v-16h34.8c-4.7-7.6-5.2-8.6-7.1-11.2h-36.5V36.2h27.4c-3.5-5.2-7.8-10.4-12.1-14.9l15.5-9.7c4.5 4.5 10.1 10.6 15.8 19.8l-7.8 4.8h14.7V11.8l20.7 2.8c.6 0 1.7.7 1.7 1.7 0 1.1-.9 1.9-1.5 2.4-.9.7-1.9 1.7-1.9 3v14.5h13V12.5l20.1 2.6c.9.2 2 .6 2 1.7 0 .7-.6 1.3-1.5 1.9-.6.4-1.5 1.1-1.5 2v15.5h11.7l-6.1-3.2c5.6-8.8 8.8-16.2 10.6-20.7l18.6 9.3c.6.2 1.3.7 1.3 1.5 0 .7-.7 1.5-1.1 1.7-.6.2-3.2 1.1-3.7 1.7-.4.4-5.6 8.2-6.7 9.7h27.2v15.5h-36.5c-2.4 4.5-4.3 7.5-6.7 11.2h34.3v16h-59.3v8h48.6V102h-48.6v8h68.4v17h-52.2zM2243 51.6c2.4 4.7 2.6 5.2 5.8 11.2h27.8c2.2-3.5 4.1-7.8 5.6-11.2H2243zm276.8 82.2c-14-5.2-21.6-8.9-32.6-16V172H2466v-64.5h6.9c-7.1-6.1-12.7-11.4-22.4-22.7-5.4 6.5-11.2 13-22.7 23.1l10.6 2.6c1.3.4 1.9 1.1 1.9 1.9 0 .9-.6 1.7-.7 2-.4.6-2.2 2.6-2.6 3.2-.6.9-.9 14.5-1.5 17.1-3.9 22.2-16 31.5-33 40.8l-15.8-15.1c8.6-3.4 29.6-11.7 29.6-36.5 0-.4 0-3.7-.4-6.9-16.8 11.2-25 14.7-32.6 17.9l-15.1-16.4c26.8-8.2 39.9-16.4 55.7-33.7h-36.5V15.3h129.1v69.5h-38.2c5 5.8 10.2 11.7 23.7 19 13 7.1 23.5 9.7 32.8 12.1l-15 17.9zm-78.5-102.3h-34.1v10.4h34.1V31.5zm0 24.6h-34.1v13h34.1v-13zm55-24.6h-32.8v10.4h32.8V31.5zm0 24.6h-32.8v13h32.8v-13zm206.8 76c-14 20.7-33.4 28.7-43.4 32.8l-13.8-19.2c8.4-2.4 22.2-6.3 33.5-19.9 11.4-13.4 13.4-28.9 13.4-37.1 0-10.2-3-22.7-13.4-32.6-11.7-11.2-24.8-11.9-31.7-12.5-6 44.3-17 70.4-23.1 82.9-5.6 11.6-14.2 27.2-23.9 27.2-6.7 0-37.3-16.8-37.3-50.1 0-41.4 34.1-79 82.2-79 38.8 0 69.3 26.3 69.3 67.8.1 16.4-4.9 29.5-11.8 39.7zm-100.3-71.7c-13.2 12.7-18.6 30-18.6 41.4 0 15.1 8.6 22.9 11.9 22.9 9.7 0 25.7-48.6 29.4-77.7-5.3 1.8-13.7 4.6-22.7 13.4zm262.1 98.6c-17-20.9-30.2-34.3-45.5-46.6-14.9 16.6-28.7 30.7-63.7 47.9l-16.4-17c12.1-5.2 35.8-15.1 59.4-40.2 20.1-21.4 27.4-40.2 31.7-50.9h-71V30.6h80.3c3.5 0 6.3-1.9 9.7-4.1l14.3 15.8c-3.7 2.6-7.8 5.8-10.1 11.2-6.3 14.9-9.9 23.5-21.6 41.7 18.1 13.6 34.1 29.4 49.4 46l-16.5 17.8zM3031 64.9c-5.2 14.5-8.9 25.2-21.4 44.7 4.7 3.9 9.1 7.8 15.7 14.2l-13.8 16c-3.2-3-6.7-6.7-14.5-13.6-14.3 16-27.8 29.1-59.1 45.5l-16.8-17.5c30.2-10.4 46-26.3 60-41-7.8-5.8-16.6-11.9-30.7-19.6l11.4-14c11.2 4.8 18.8 8.9 31.7 17.7 11.2-16.6 14.2-25.2 16.8-34.5h-47.7c-12.3 17.1-21.4 28.1-33.7 37.8l-17.3-12.9c26.3-17.9 44.2-49.8 52.2-73l20.5 6c1.1.4 3.7 1.5 3.7 2.8 0 1.1-1.7 1.9-4.3 3-2.2 4.5-5.8 11.7-9.5 18.1h42.9c2.2 0 5.6-2.6 8.4-4.5l13.8 14.3c-3.6 2.8-6.8 6.2-8.3 10.5zm83.2 0c-10.6-8.8-23.3-16.8-38.2-23.5l11.4-17.5c12.3 5.4 27.4 13.4 39.1 23.1l-12.3 17.9zm54.5 50.7c-29.4 23.9-47.1 31.7-70.2 41.6-.9 2.6-1.3 5.8-2.8 5.8-1.1 0-2.8-1.1-4.1-3.5l-13-22.4c14.9-3.5 39.3-9.9 69.1-32.2 28.5-21.2 46.4-45.8 54.6-57l12.9 18.6c-7.3 9.5-21.9 29.1-46.5 49.1zM3365.6 66c-4.5 12.1-8.8 23.3-22.5 44.7 3.9 3.4 7.8 6.7 15.5 14.3l-13.8 16c-5.2-6-9.5-9.7-14.3-13.6-16.6 18.1-31.1 29.1-59.4 43.6l-16.8-17.5c32.2-11 48.4-27 61.1-40.1-10.8-8.2-19.4-13.6-31.5-20.1l11.2-14.2c6.7 3 15.3 6.9 32.6 18.4C3336 85.2 3340.1 77 3344 63h-47.1c-8.4 11.6-18.8 25.3-34.5 37.6l-17-13c25.7-17.7 44.2-48.3 52.5-72.7l21.1 6.3c1.3.4 3.7 1.3 3.7 2.8 0 .9-.7 1.3-3.7 2.6-.9.4-.9.7-2.2 3.4-1.3 3-4.1 7.8-8.2 14.7h42.7c2.4 0 6.1-3 8.4-4.5l14.2 16c-5.5 3.8-7.2 6.4-8.3 9.8zm.6-28.9c-3.9-6.9-8-11.9-13.6-17.3l9.9-8.2c3.5 3.5 9.3 9.5 14 17.7l-10.3 7.8zm24-7.4c-3.5-5.8-8.2-13-14.7-19.6l9.5-7.6c4.5 4.5 10.6 11.2 15.3 19.6l-10.1 7.6zm18.9 74.9V80.9h132.5v23.7h-132.5zm274.3 18.6c-16-14.9-33.7-28.3-53.9-36.7v79.6h-22.9V18.5l23.1 4.1c.4 0 4.5.7 4.5 3 0 1.1-4.7 4.1-4.7 5v48.3l8.6-13c25 10.8 44.2 24.8 60 38.8l-14.7 18.5zm5.4-63.9c-5.2-6.9-10.8-12.1-16.8-16.4l10.2-8.2c6 4.3 11.6 9.5 16.8 16.4l-10.2 8.2zm21.8-12.1c-5-6.5-10.8-12.3-17.3-16.8l9.7-8.2c6.7 4.7 12.3 10.2 17.3 16.8l-9.7 8.2zm127.9 57c0 7.3.4 30.4.4 36.7h-21.6c.6-10.6.7-19.8.9-28-7.1 3.5-26.5 13.2-26.5 26.3 0 12.1 14.3 14.5 28 14.5 16 0 31.9-2.4 47.5-6v21.1c-17.7 2.8-38.4 2.8-44.3 2.8-10.4 0-32 0-43.8-12.5-7.1-7.5-7.1-15.7-7.1-18.3 0-23.1 17.1-31.9 45.1-46.2-1.1-5.6-3.4-12.3-14.2-12.3-18.3 0-29.4 17-39.7 33.7l-18.3-11.4c14.7-15.8 24-29.1 36.7-51.2-10.6.6-16.4.7-24.2.7l-2.2-19.4c11.2.9 19.4 1.3 35.6.7 4.7-10.1 7.1-16.6 9.3-24.8l23.3 4.1c.6.2 3.7.6 3.7 1.9 0 1.1-.7 1.7-1.9 2-.4.2-4.1 1.9-4.3 1.9-.2.2-4.8 10.6-5.8 12.7 17.1-2.8 25.5-5.2 36.5-9.5l-1.3 20.9c-16.8 3.9-32.1 5.6-44.5 7.1-6 11-7.5 13.6-10.6 18.4 2.4-1.1 8-3.9 16-3.9 12.9 0 21.1 6.5 25.3 18.8 21.8-10.2 24.2-11.4 33-15.3l6.3 21.2c-14.5 4.9-23.5 8.1-37.3 13.3zm145.6 69.3v-5.4h-31.5v5.4h-17.9v-32.1c-2.4 7.1-5.4 14.3-12.1 24.2l-19.2-8.6c5-5.8 13.2-14.9 18.3-31.1 4.7-14.5 4.5-21.1 4.5-60.7h75.1v50.7h-58.9c-.7 3.9-.9 4.7-1.3 5.6h60.6v52h-17.6zm14.8-122.8c-3.2-.9-6.3-2.2-10.6-4.5V61h-47.9v-9.5c-8.9 6.9-14.3 10.1-18.1 12.3l-13.8-14.2c17.3-7.3 35-22.4 41.9-37.8l20.3 1.3c.4 0 4.1.2 4.1 2.2 0 .4-.2.7-.4 1.1 9.3 8.6 22.5 15.1 34.8 19.8l-10.3 14.5zm-16.1 44.9h-38.2c-.2 3.2-.2 3.5-.6 6.9h38.8v-6.9zm0-17.5H3945v6.1h37.8v-6.1zm-19.4-48.3c-6.3 7.3-9.5 10.2-15.3 15.3h38c-10.9-5.9-17.1-10.6-22.7-15.3zm20.7 106.1h-31.5v17.3h31.5v-17.3zm52.8-93.6c-2.8 2-3 2-3 2.8v85.3h-18.6V36l18.1 1.7c1.7.2 4.8.7 4.8 3 0 .5-.6 1.1-1.3 1.6zm31.3-21c-.6.4-2.2 1.5-2.2 2.4v127.1c0 17.9-9.3 19.6-30 19.9l-9.9-21.6c3.7.2 12.1.4 16 .4 1.5 0 4.1 0 4.1-4.8V13.3l19 2.2c1.3.2 5.2.7 5.2 3.2 0 .7-.6 1.4-2.2 2.6zm98.3 145.9c-23.3 0-35.2-11.7-35.2-25.5 0-10.6 9.1-24.8 27.4-24.8 19.4 0 31.5 15.3 36.7 21.8 4.1-3.7 12.3-11.6 12.3-24.8 0-18.4-18.1-24.4-30.2-24.4-8 0-16.8 2.2-21.2 4.7-11.6 6.1-28 22.7-38.4 33.4l-15.7-16.4c19.4-14.5 39.1-31.1 68.9-67.3-11.2 2.6-21.4 4.5-43.6 4.7l-4.3-20.9c4.5.4 15.1 1.1 20.9 1.1 7.1 0 38.8-2.4 56.5-9.3l9.7 15.1c-11.2 9.3-14.3 12.3-41.4 39.9 6.1-.9 15.3-1.1 18.1-1.1 25.3 0 41.4 20.7 41.4 41.2 0 30.8-29.1 52.6-61.9 52.6zm-7.1-33.9c-7.6 0-9.3 5.4-9.3 7.8 0 6.5 8.6 8.4 15.3 8.4 6 0 10.1-1.1 12.7-1.7-2.5-4.3-8.1-14.5-18.7-14.5zM1789.8 78.8c-4.2-3.9-6.6-7.1-9.2-11.4-3 7-6 11.1-12.4 16.9l-7.9-4.8c9.4-7 13-12 15.5-23.1h-13.3v-7.6h14.2c.3-4 .3-6.8.1-11.7h-3.3c-1.3 3.5-2.5 6.2-4.6 9.3l-7.8-3c3-4.7 5.9-10 8.3-22.4l8.1 2c.3.1 1.2.3 1.2.8 0 .4-.3.6-.7.8-.6.3-1 .5-1.1.9-.5 1.2-.8 3.3-1.2 4.5h17.6v7h-8.1c-.1 3.5-.1 6.8-.6 11.7h9.8v7.6H1784l-.1.7c2.3 6.5 6.1 11.6 11.6 15.7l-5.7 6.1zm26.3 2.1v-5.3h-11.4v8.1h-7.9V28.4h27.3v52.5h-8zm0-45.1h-11.4v32.4h11.4V35.8zM1890 68c-5.5 8.1-13.1 11.3-17.1 12.9l-5.4-7.5c3.3-1 8.7-2.5 13.2-7.8s5.3-11.3 5.3-14.6c0-4-1.2-8.9-5.3-12.8-4.6-4.4-9.7-4.7-12.4-4.9-2.3 17.4-6.7 27.7-9.1 32.6-2.2 4.5-5.6 10.7-9.4 10.7-2.6 0-14.6-6.6-14.6-19.7 0-16.3 13.4-31 32.3-31 15.2 0 27.2 10.3 27.2 26.6 0 6.3-2 11.5-4.7 15.5zm-39.4-28.2c-5.2 5-7.3 11.8-7.3 16.3 0 5.9 3.4 9 4.7 9 3.8 0 10.1-19.1 11.6-30.5-2.2.7-5.5 1.8-9 5.2zm108.4 4.1l.5 32.1c.1 4.8-1.3 8.1-8.1 8.1h-6.1l-2.6-8.9c1.5.1 4.1.4 5.5.4 2.6 0 2.9-1.9 2.9-3.5l.1-16c-3 6.5-7.5 12.1-12.6 17.2L1933 68h-5c2.2 3.1 4.4 5.8 8.2 9.3l-6.6 5.4c-4-4.2-5.6-6.1-9.2-11.3l3.9-3.4h-11.5l5.7 3.7c.4.2.5.7.5.8 0 .7-1 .7-1.5.8-2.7 4-4.8 6.8-8.8 10.6l-6.7-5.1c3.4-3.2 5.7-6.2 8.2-10.8h-3.7V23.2h26.8v42.5c9.7-8.8 12.2-14.6 15.4-21.8h-14.2v-7.8h15.7V20.9l8.2.4c.7 0 1.4.1 1.4.7 0 .4-.3.7-.6.9-.6.4-.7.7-.7 1v12.2h7.9v7.8h-7.4zm-33.1-13h-12v5.2h12v-5.2zm0 12h-12v5.3h12v-5.3zm0 12.2h-12v5.7h12v-5.7zm58.8 28.2v-6.6h21.2v-5.6H1994v-6.4h11.9v-5.1h-9.9c-.9 1.5-1.8 3.1-3.1 5l-7.1-3.4c-1 11.8-3.8 18.2-7 24.3l-7.7-3.2c2.6-4.2 7.2-11.7 7.2-27.2 0-1.2 0-6.8-.7-15h14.6c-1.1-2.6-2-4.5-3.4-6.5h-11.3v-6.4h23.6V21l8.9.7c.4 0 1.8.1 1.8 1 0 .4-.4.7-.7.8s-.9.7-.9 1.2v2.6h23.7v6.4h-10.4c-1 2.7-2 4.5-3.2 6.5h14.6v6.5h-40l5.8 2.9c1 .5 1.2.8 1.2 1.1 0 .1 0 .3-.1.3-.1.2-1.2.4-1.5.4s-.4.3-1.2 2h6.4v-5.5l7.5 1.2c.7.1 1.7.3 1.7.9 0 .3-.4.5-.6.7-.1.1-.7.4-.7.8v2h17.6v6.4h-17.6V65h13v6.4h-13V77h21.9v6.6h-50.6zm1.4-36.8c-.1 7.5-.1 10.5-.2 13.5 3.9-3.3 6.9-9 8.1-13.5h-7.9zm12.2-13c1.3 2 2.4 4 3.4 6.5h9.7c.6-1 1.8-2.9 3.1-6.5h-16.2zm84.6 23.5c0 2.9.1 11.9.1 14.4h-8.5c.2-4.2.3-7.8.4-11-2.8 1.4-10.4 5.2-10.4 10.3 0 4.8 5.6 5.7 11 5.7 6.3 0 12.5-1 18.7-2.3v8.3c-7 1.1-15.1 1.1-17.4 1.1-4.1 0-12.6 0-17.2-4.9-2.8-2.9-2.8-6.1-2.8-7.2 0-9.1 6.7-12.5 17.7-18.2-.4-2.2-1.3-4.8-5.6-4.8-7.2 0-11.6 6.7-15.6 13.3l-7.2-4.5c5.8-6.2 9.4-11.4 14.4-20.1-4.2.2-6.4.3-9.5.3l-.9-7.6c4.4.4 7.6.5 14 .3 1.8-4 2.8-6.5 3.7-9.7l9.2 1.6c.2.1 1.5.2 1.5.7 0 .4-.3.7-.7.8-.1.1-1.6.7-1.7.7-.1.1-1.9 4.2-2.3 5 6.7-1.1 10-2.1 14.3-3.7l-.5 8.2c-6.6 1.5-12.6 2.2-17.5 2.8-2.3 4.3-2.9 5.3-4.2 7.2 1-.4 3.1-1.5 6.3-1.5 5.1 0 8.3 2.6 10 7.4 8.6-4 9.5-4.5 13-6l2.5 8.3c-5.9 1.8-9.4 3-14.8 5.1zm-295.8 95.4c-2.2-1.6-4.9-3.7-8-7v24.9h-7.7v-20.5c-2.5 2.2-4 3.4-6.4 5l-5.5-5.6c8.1-5 14.8-11.9 19.4-20.3h-16.4V121h8.8v-13l8.5 1c.4.1.8.3.8.7 0 .3-.3.6-.5.7-1 1-1.2 1.2-1.2 1.5v9.2h7.9l3.3 3.3c-1.1 2.8-2.7 6.6-8.1 13.8 3.4 4 5.9 5.9 9.4 8.2l-4.3 6zm-3.6 16.5V161h17.3v-24.5h-11.1v-7.9h11.1v-20.9l9 .9c.4 0 .8.3.8.7 0 .2-.1.5-.4.7-.6.6-1 1-1 1.2v17.4h13.4v7.9h-13.4V161h15.2v7.9h-40.9zm108-34.5c-3.7-1.2-6.2-2.6-8.4-3.9v6.2h-35.3v-6c-3.7 2.3-5.9 3.4-9.2 4.8l-5.6-6.4c12.4-4.9 20.1-11.7 26.7-22.3l10.5 1.8c.6.1 1.1.4 1.1 1 0 .4-.3.8-.7 1 3.6 4.1 7.8 7.6 12.4 10.5 2.6 1.5 8.4 4.8 14.2 6.4l-5.7 6.9zm-4.8 36.6c-.7-1.1-1.6-2.7-4.8-6.5-10 1.2-26.5 3.1-28.6 3.3-1.5.1-9.3.8-11.1 1.1-.4.1-.6.2-.7.5-.4.9-.7 1.1-.9 1.1-.2 0-.6-.3-.7-.7l-2.3-9.6c4.6 0 6.7-.1 10.3-.2 1.8-2.9 3.4-5.5 6.7-11.8H1838v-7.1h53.8v7.1h-15.4c6.3 5 12.7 11.7 17.1 17.3l-6.8 5.5zm-21.8-55.9c-5.3 6.4-9.2 10-15.2 14.3h31.5c-6.2-4-10.5-7.4-16.3-14.3zm5.3 38.4l5.3-5.3h-11c-3.4 6.1-5.6 9.3-6.9 11.3 6.1-.3 12.2-.7 18.3-1.4-1-1-2.8-2.6-5.7-4.6zm89.8 1c-5.5 8.1-13.1 11.3-17.1 12.9l-5.4-7.5c3.3-1 8.7-2.5 13.2-7.8s5.3-11.3 5.3-14.6c0-4-1.2-8.9-5.3-12.8-4.6-4.4-9.7-4.7-12.4-4.9-2.3 17.4-6.7 27.7-9.1 32.6-2.2 4.5-5.6 10.7-9.4 10.7-2.6 0-14.6-6.6-14.6-19.7 0-16.3 13.4-31 32.3-31 15.2 0 27.2 10.3 27.2 26.6 0 6.3-2 11.5-4.7 15.5zm-39.4-28.2c-5.2 5-7.3 11.8-7.3 16.3 0 5.9 3.4 9 4.7 9 3.8 0 10.1-19.1 11.6-30.5-2.2.7-5.5 1.8-9 5.2zm110.2 25.1c-1.6 14.1-4.6 17.1-18.4 17.9l-3.7-9.2c1.5.2 4.1.5 5.9.5 5.7 0 6.5-2.6 7.2-7.6 1.6-11.6 1.7-19.7 1.8-24.9H2005c-.7 14.5-6.4 32.7-25.2 42.7l-7.8-7.1c20.8-8.7 23.3-25.3 24.5-35.6h-21v-8.4h21.2c.1-6.4 0-9.6-.1-12.1l8.1.7c2 .1 3.1.3 3.1 1.1 0 .1 0 .4-.2.6-.2.3-1.3 1.4-1.5 1.7-.4.8-.4 6.6-.4 8.1h26.7c-.1 9.4-.1 19.2-1.6 31.6zM2058 165l-5.8 2.3c-1.2-1.9-1.8-3.1-2.7-5.8-2.2-6.8-3-13.6-3-19.3 0-4.7.6-10.1 1.1-14.4 1-7.9 2-12.4 3.1-16.7l7.5 2.7c.5.2 1.9.7 1.9 1.3 0 .1-.1.4-.4.7-.1.1-1.1.4-1.2.5-1.1.7-4.2 13.9-4.2 25 0 1.2 0 6.9 1 10 .9-1.5 1.3-2.3 2.9-5.1l4.3 2.3c-2.7 6-3.8 11.8-4.5 16.5zm26.2-2.2c-13.3 0-16.1-3.6-16.3-16l8-1.1c.1 7 .8 8.9 8.2 8.9 8.3 0 14.1-1.5 16.7-2.3v9.1c-3.9.7-8.8 1.4-16.6 1.4zm-5.9-37.6c-.6 0-4 0-7.8-.4v-8.1c2.1.3 5.4.8 9.4.8 8.6 0 14.6-2 17.4-3v8.5c-3.4.7-10.8 2.2-19 2.2zm2281.6-76.7c-13.6-4.8-22.2-12.7-28.4-19.7-6.6 9.4-16 16.1-26.1 21.4l-7-7.3c12-4.5 21.6-11.7 28-22.4l9.6 1.3c.8.1 1.3.6 1.3 1.2 0 .1-.1.4-.1.4 3.6 4.3 7.8 8.1 12.4 11 5.6 3.6 10.2 5.4 16.7 7.2l-6.4 6.9zm-56.6 35.7v-8.1h9.8V51.8l7.9.8c.5 0 1.4.1 1.4.9 0 .2 0 .4-.5.9-.2.1-.7.5-.7 1v20.7h7.5V37.8l8.2.8c1 .1 1.8.3 1.8 1 0 .4-.6.8-.9 1-.2.1-.8.6-.8 1V54h15.7v8.3H4337v13.8h23.4v8.1h-57.1zm111-18.3c6.5 6.3 12 8.9 20.2 11.3l-5.6 6.4c-12.4-5.1-17.6-10.3-20.9-13.8v13.8h-7.9v-13c-5.5 5-11.2 9.5-20.1 13.8l-6.7-5.9c7.8-3 13-5.7 21-12.4h-21v-6.7h26.8v-3.1h-18.7v-5.9h18.7V47h-23.4v-6.3h13.7c-1.8-3-2-3.4-2.8-4.4h-14.3v-6.1h10.8c-1.4-2-3.1-4.1-4.8-5.9l6.1-3.8c1.8 1.8 4 4.2 6.2 7.8l-3.1 1.9h5.8v-9.6l8.1 1.1c.2 0 .7.3.7.7 0 .4-.4.7-.6 1-.4.3-.7.7-.7 1.2v5.7h5.1V21l7.9 1c.4.1.8.2.8.7 0 .3-.2.5-.6.7-.2.1-.6.4-.6.8v6.1h4.6l-2.4-1.2c2.2-3.4 3.4-6.4 4.2-8.1l7.3 3.7c.2.1.5.3.5.6s-.3.6-.4.7c-.2.1-1.2.4-1.5.7-.1.1-2.2 3.2-2.6 3.8h10.7v6.1h-14.3c-1 1.8-1.7 2.9-2.6 4.4h13.5v6H4408v3.1h19.1V56H4408v3.1h26.9v6.7h-20.6zm-17.9-29.5c1 1.8 1 2 2.3 4.4h10.9c.9-1.4 1.6-3.1 2.2-4.4h-15.4zm104 31.6c-5.5 8.1-13.1 11.3-17.1 12.9l-5.4-7.5c3.3-1 8.7-2.5 13.2-7.8s5.3-11.3 5.3-14.6c0-4-1.2-8.9-5.3-12.8-4.6-4.4-9.7-4.7-12.4-4.9-2.3 17.4-6.7 27.7-9.1 32.6-2.2 4.5-5.6 10.7-9.4 10.7-2.6 0-14.6-6.6-14.6-19.7 0-16.3 13.4-31 32.3-31 15.2 0 27.2 10.3 27.2 26.6 0 6.3-2 11.5-4.7 15.5zM4461 39.8c-5.2 5-7.3 11.8-7.3 16.3 0 5.9 3.4 9 4.7 9 3.8 0 10.1-19.1 11.6-30.5-2.2.7-5.5 1.8-9 5.2zm114.1 12.9c-4.1-2-7-3.7-11-7v3.7h-4.7V57h14.3v6.7h-14.3v10.2c0 1.7.9 2.5 2.6 2.5h7.4c1.7 0 3.1-2.8 3.9-7.6l6.7 4.5c-.5 2.8-1.5 5.6-3.3 7.8-1.2 1.5-2.4 2.4-6.4 2.4h-13c-3.4 0-5.9-1.9-5.9-5.2V63.7h-7.6c-1.8 10.3-9.2 17.9-20 20.8l-5-7c11.5-1.6 16.2-8.2 17.9-13.8h-12.8V57h13.3v-7.6h-3.5V46c-4.4 3.9-8.5 6.7-13.1 9.3l-5.9-5.7c4.4-2 8.1-4.1 12.4-7.5-2.4-2.8-5.2-5.1-6.5-6.1l5.2-4.5h-4.1v-6.7h24.2l1.7 1.8c-3.7 7.6-6.4 11.6-10.5 16.1h23.8c-6.6-6.7-10.4-13.6-12.5-18.8l7.2-2.8c.9 2.4 1.8 4.8 3.3 7 2.5-2.6 3.8-4.1 5.5-6.3l5.6 3.5c.2.1.9.7.9 1.2 0 .2-.1.7-.9.7-1.2 0-1.3 0-1.8.5-2.8 3-4.1 4.3-5.4 5.6 1.1 1.3 1.7 2 3.1 3.3 2.7-2.8 4.4-4.7 6.7-7.5l5.8 2.9c.1 0 1.1.7 1.1 1.3 0 .3-.1.7-.5.7-.2.1-1.4.1-1.6.3-.4.1-5.5 5.4-6.5 6.4 2.9 1.9 5.6 3.3 10.3 5.1l-6.1 6.9zm-48.2-21.3c2.3 2.1 3.6 3.4 5.2 5.4 1.8-2.2 2.6-3.6 3.5-5.4h-8.7zm24.6 17.9h-6.9v7.6h6.9v-7.6zm94.5 34.1c-2.2-.8-7.2-2.6-12.6-6.7-7.4-5.6-10.4-11.9-11.9-14.9h-3.4L4618 74c3.5-.5 6.4-1 10-1.8l-.4 7.1c-9.7 2.2-16.8 3.5-21.3 4.2-1.2.2-1.6.2-2.3.7-.1.1-1 1.2-1.3 1.2-.8 0-1.1-1-1.2-1.9l-.9-7.4c1.2 0 2.3-.1 8.8-.9V61.7h-8.3c-.6 5.1-2.2 12.4-6.2 20.6l-7.8-2.5c1-1.8 2.7-5.1 4.2-10.8 1.7-6.2 2.8-13.7 2.8-22.5 0-7.5-.4-16.9-.9-25.1h57v17.1H4632l4.6.7c1 .1 2.3.4 2.3 1.1 0 .5-.6.7-1.1 1v2.4h11.9V50h-11.9v5.2h14v6.5h-8l4.5 4c.2.2.4.5.4.8 0 .6-.4.6-1.2.6-1 0-1.3.2-1.8.4-1.2 1-3.1 2.5-5.7 4.8 3.9 2.3 7.5 3.7 12 4.6l-6 6.5zM4611.6 50h-7.5v-6.3h7.5v-5.2h-9.5v8.3c0 1.6 0 4.8-.1 8.3h9.7V50zm30.7-22.2h-40.2v4.3h40.2v-4.3zm-12.4 10.7h-16l4.5.7c.1 0 2 .3 2 1.1 0 .4-.4.7-.8.9v2.5h10.2v-5.2zm0 11.5h-10.2v5.2h10.2V50zm0 11.7c2 3.5 3.9 5.3 5 6.2 2.7-2 4.5-4 6.1-6.2h-11.1zm46.3 16.8l-5.8 2.3c-1.2-1.9-1.8-3.1-2.7-5.8-2.2-6.8-3-13.6-3-19.3 0-4.7.6-10.1 1.1-14.4 1-7.9 2-12.4 3.1-16.7l7.5 2.7c.5.2 1.9.7 1.9 1.3 0 .1-.1.4-.4.7-.1.1-1.1.4-1.2.5-1.1.7-4.2 13.9-4.2 25 0 1.2 0 6.9 1 10 .9-1.5 1.3-2.3 2.9-5.1l4.3 2.3c-2.7 6-3.8 11.8-4.5 16.5zm26.2-2.2c-13.3 0-16.1-3.6-16.3-16l8-1.1c.1 7 .8 8.9 8.2 8.9 8.3 0 14.1-1.5 16.7-2.3V75c-3.9.6-8.9 1.3-16.6 1.3zm-5.9-37.6c-.6 0-4 0-7.8-.4v-8.1c2.1.3 5.4.8 9.4.8 8.6 0 14.6-2 17.4-3v8.5c-3.4.7-10.8 2.2-19 2.2zm-395.7 85.9v-5.8h26.8v-4.1h-20.7v-5.8h50.8v5.8h-20.8v4.1h26.6v5.8h-62.7zm55.8 45.9c-7.9-1.4-15.3-5.3-20.9-8.7l2.9-4H4326l3 3.8c.2.3.5.7.5 1.1 0 .8-.5.8-.8.8-.4 0-.7-.1-1.5-.4-6.4 3.7-13.4 6.1-20.6 7.8l-5.1-7.3c8.6-.8 14-2.7 19.3-5.7h-10.9v-30.3h45v30.3h-9.7c3.9 2.3 8.5 4.5 16.9 5.5l-5.5 7.1zm-10.5-37.7h-27.5v3.2h27.5v-3.2zm0 7.8h-27.5v3.5h27.5v-3.5zm0 8h-27.5v3.7h27.5v-3.7zm84.7 21.7c-3.5-5.6-7.3-12.7-9.9-23.4-2 8.9-5.1 16.3-10.4 23.9l-4.7-3.4c-1.7 3.2-4.6 3.7-9.4 3.7l-2.6-9.1c1.3.3 2.5.3 2.9.3 2.4 0 3-1.2 3-2.7v-22.8c-.1.3-1.7 1-1.9 1.2-.1.1-1.5 3.3-1.8 3.9h1.7v5.9h-4.7v2.6h4.7v5.6h-4.7v12h-6.1v-11.9h-4.2v-5.6h4.2v-2.6h-4.2V142h2c-.6-2.2-1.6-4.5-2.9-6.5l5.6-1.5c.7 2 1.3 4 2 6.8l-3.7 1.2h5.1c1.1-2.9 1.6-5.3 2.1-7.6l5.9 1.2c.3.1.7.2 1 .4v-3.6h-18.2v38.3h-7.1v-45h12v-4.3h-13.3v-7.2h13.3V107l8.4.5c1.1.1 1.7.3 1.7 1 0 .4-.2.7-.4.9-1 1-1.2 1.1-1.2 1.8v3.1h13.8v7.2H4395v4.3h11.8v33.9c0 2.1 0 2.2-.1 2.9 6.9-10 8.3-15.7 9.6-28.6h-8.1v-8.1h8.3v-18.8l7.5.5c2.3.1 2.3.7 2.3 1s-.1.6-.4.8c-1.2 1.2-1.3 1.4-1.3 2v14.5h12v8.1h-12c.4 4.7.9 9.1 4.1 16.5 3.5 8 7.1 11.9 10.2 15.3l-8.1 4.5zm-1-45.7c-1.8-5.3-2.9-7.7-4.3-10.5l6.7-2.8c2 3.4 3.6 6.9 4.9 10.5l-7.3 2.8zm53.6.4v10.2c.8 1.8 2.1 4.3 2.1 8.9 0 2.1-.4 7.5-3.7 14.1-3.4 6.8-7.3 10.9-10 13.6l-8.2-4.2c4.4-2.9 8.9-6.7 10.5-12-1.6.4-2.7.7-4 .7-1.9 0-4.2-.7-6-2.3-3-2.6-3.8-6.6-3.8-10.2 0-8.1 4-13.6 11.5-13.6 1.4 0 2.4.2 3.4.6l-.1-5.5c-6.5.4-17.6 1-26.9 2.2V119c5 0 11.3 0 26.6-.7-.1-2.3-.1-6.1-.5-11.5l8.1.5c1.7.1 2.1.3 2.1 1 0 .4-.1.7-.7 1.1s-.6.6-.6.9v7.5c10.2-.6 12.4-.8 19.9-1.4v7.9c-5.4.2-10.2.3-19.7.7zm-8.2 13.3c-.7-.7-1.8-1-2.7-1-2.9 0-5 2.6-5 6.4 0 4.4 2.3 6.1 4 6.1 1.5 0 5.1-1.6 5.1-6.8 0-1.5-.2-3.4-1.4-4.7zm62.4 30c-9.2 0-13.8-4.6-13.8-10 0-4.2 3.6-9.7 10.8-9.7 7.6 0 12.4 6 14.4 8.6 1.6-1.5 4.8-4.5 4.8-9.7 0-7.2-7.1-9.6-11.9-9.6-3.1 0-6.6.9-8.3 1.8-4.5 2.4-11 8.9-15.1 13.1l-6.2-6.4c7.6-5.7 15.4-12.2 27.1-26.4-4.4 1-8.4 1.8-17.1 1.8l-1.7-8.2c1.8.1 5.9.4 8.2.4 2.8 0 15.2-1 22.2-3.7l3.8 5.9c-4.4 3.7-5.6 4.8-16.3 15.7 2.4-.4 6-.4 7.1-.4 10 0 16.3 8.1 16.3 16.2 0 12-11.4 20.6-24.3 20.6zm-2.7-13.4c-3 0-3.7 2.1-3.7 3.1 0 2.6 3.4 3.3 6 3.3 2.3 0 4-.4 5-.7-1-1.6-3.2-5.7-7.3-5.7z"></path></svg>