<svg xmlns="http://www.w3.org/2000/svg" viewBox="0 0 5676 178" class="m--sg"><path d="M5249.1 48.1v5.1h9.7v7h-9.7c2.6 3.7 6.3 6.8 8.4 8.5l-4.7 5.4c-1.8-1.2-2.9-2.3-3.7-3.4v13h-7.9V69.8c-2.1 3.4-5.1 7.3-7.9 10l-6.5-4.2c4.9-4.1 8.8-8.7 11.6-15.3h-8.6v-7h11.4v-5.1h-12.4v-6.7h7.5c-.4-1.5-1.5-5.4-2.5-8.1h-3.6v-6.5h11.4v-6.3l8.1.7c1.1.1 1.5.3 1.5.7 0 .4-.4.7-.7 1-.1.1-.7.7-.7 1.1V27h9.5v6.5h-2.3c-.8 3-1.5 5.1-2.9 8.1h6v6.7h-11zm-7.7-14.8c1 2.4 1.8 5.2 2.6 8.1h2.7c.6-1.7 1.7-4.8 2.3-8.1h-7.6zm48.1-4c-.7 0-2.4.4-3.2.7-.4.1-8.5 2-16.1 2.6.1 2.3 0 3.4-.1 9.1h20.4v7.8h-6.6v33.8h-7.6V49.5h-6.4c-.8 18-2.7 25-8.9 34.4l-7.8-2.6c2.4-2.7 4-4.5 5.6-8.5 2.9-7.3 3.6-16 3.6-27.4 0-6.5-.1-13-.4-19.5l4.5.3c.8.1 1.9-.1 2.2-.1 11.8-2.3 13.1-2.6 17.2-4.1l4.4 5.3c.2.3.7 1 .7 1.5.2.5-.3.5-1.5.5zm46.9 48c-6.1 4-11.5 4.7-14.6 4.7-4.6 0-8.3-1.7-10.7-3.7-3.4-3-4.6-6.7-4.6-24.3 0-4.5.6-26.2.4-31.1l9.7 1.4c1.8.2 2.4.7 2.4 1.2 0 .6-.9 1.2-2 2.1-.6 1.9-2 21.2-2 29.3 0 3.4 0 10.5 1.4 13 .1.2 1.8 3.1 6.4 3.1 4.1 0 13.9-2.6 21.1-16.6l7.2 5.9c-3 4.1-7.4 10.4-14.7 15zm40.3-.6c-2.3 0-4.2-1.2-5.4-2.4-5.1-5-7.5-13.5-7.5-27.5 0-9.4 1-14.1 2.2-19l8.1 2.2c.5.1 1.7.5 1.7 1.4 0 .8-.9 1.1-2.1 1.5-.8 4-1.4 8.3-1.4 16.3 0 14.3 3.5 16.9 5 16.9 2.6 0 5.6-7.8 7-11.3l6.1 5.4c-4.1 8.7-7.7 16.5-13.7 16.5zm37.1-13c-2.1-15.2-7-23.9-10.8-29.7l7.5-3.7c3.5 5 10 14.2 12 31.1l-8.7 2.3zm80.7 9.1c-2 9.7-7.7 9.9-11.3 10l-3.1-6.7c-1.5 2.6-2.3 3.9-4.1 6.2l-6.7-3.2c1.8-1.9 2.5-2.9 2.9-3.7-5.2 1-13.3 2.3-14.6 2.5-1.1.1-5.9.5-6.2 1.1-.4.6-.7 1-1.4 1s-.8-.9-.8-1.2l-.3-5.5c4.7-.4 6.2-.5 9.9-1v-3.9h-9v-5.1h9v-2.6h-9V40.4h9v-2.7h-10.5v-5.3h10.5v-2.3c-2.3.3-4.3.6-6.9.8l-2.9-5c-1.3 3.2-2.3 5.4-4.2 9.3.6.4 1.5 1 1.5 1.8 0 .2-.7 1.4-.7 1.7V83h-7.5V47.1c-1 1.5-1.2 1.7-2.2 2.9l-6.6-4.4c4-5.4 9.4-13.3 13.1-25.4l7.6 3.4c.4.1 1 .4 1 1 0 .3-.2.6-.3.7 6.4-.2 13.8-1.5 20.6-4.1l3.6 4.8c.4.6.5 1 .5 1.2 0 .6-.7.7-1 .7s-1.8-.5-2.1-.5c-.1 0-3.1.7-3.2.7-.5.1-2.3.5-4 .8v3.4h9.2v5.3h-9.2v2.7h9.1v20.4h-9.1v2.6h8.5v5.1h-8.5v3.1c2.5-.3 3.4-.4 8.1-1.2V74c5.1-8.8 6.7-16.2 7.4-30.4h-5.2v-7h5.1c-.1-5.6-.4-10.9-.9-15.9l7.2.4c.8.1 1.5.4 1.5 1 0 .5-.3.7-.6 1-.7.6-.7 1-.7 1.3 0 .9.2 5.3.2 6.4v5.8h9.4c-.1 7-.2 27.1-2.1 36.2zm-35.8-27.3h-3.2v2.9h3.2v-2.9zm0 7.2h-3.2v3.1h3.2v-3.1zm9.5-7.2h-3.3v2.9h3.3v-2.9zm0 7.2h-3.3v3.1h3.3v-3.1zm18.8-8.9c-.9 16-2.2 22.3-6.4 31.2 1.2.4 2.2.5 2.9.5 2.8 0 4.1-2.9 5-8.3 1.3-7.7 1.5-15.5 1.5-23.4h-3zm58.3-16.3c-.9.1-1.1.3-3 2.2-1.5 1.6-8.6 8.4-16.2 15.4-4.8 4.5-5.2 4.9-5.2 6.3 0 1.1.4 1.9 1.2 2.6 9.4 7.8 16.5 14.1 24.7 24.5l-7.5 7c-8.6-12.9-15.8-19.3-25.3-27.5-3.1-2.6-3.7-5.1-3.7-6.4 0-3.2 2.6-5.9 5.1-8.2 10.4-9.4 16.4-15.2 23.4-23.9l6.7 5.2c.1.1 1.5 1.2 1.5 2 .2.6 0 .6-1.7.8zm-300 84.7c-1 .4-1.1.6-1.4 1.1-1.4 4.4-2 5.8-2.6 7.1 1.7 1 1.9 1 1.9 1.5 0 .4-.7 1-.7 1-.2.2-.7.7-.7 1.2v45.5h-8.1v-34.9c-.5.8-.9 1.4-2.1 3.4l-6.7-4.5c3.6-4.8 8.1-11 12.8-26.2l6.4 2.2c1.7.6 2.5.9 2.5 1.5 0 .7-.8 1-1.3 1.1zm32.8 4.9v9.6h11.7v42.2h-7.7v-2.1h-26.6v2.6h-7.8v-42.7h11.6v-9.6H5247v-7.2h44.2v7.2h-13.1zm-18.8 17.3h-3.8v24.7h3.8v-24.7zm11.4-17.3h-4.2v9.6h4.2v-9.6zm0 17.3h-4.2v24.7h4.2v-24.7zm11.4 0h-4v24.7h4v-24.7zm38.3-22.5c-1 .3-1.2.3-1.4.7-1.3 3.6-1.8 4.8-3.6 8.6.6.4 1.8 1.2 1.8 2 0 .4-.2.7-1.1 1.2-.4.2-1 .6-1 1v45.3h-7.2v-36.2c-.7 1-1.5 2.1-2.3 2.9l-7.1-4.8c4.5-4.8 10-12.3 13.3-25.8l8.2 3.1c.5.2 1.2.6 1.2 1.2.1.4-.4.6-.8.8zm6.8 56.3v2.4h-7.5v-42.5l7.4.8c.8.1 1.9.3 1.9 1 0 .4-.3.6-.7.9-1.1.7-1.2.8-1.2 1.1v29.5h37.9v6.8h-37.8zm21-48.6v4.5h13.2v34.3h-30.5v-34.3h9.1v-4.5h-17v-7.1h16.9v-5.6l7.8.8c1.8.1 2.3.5 2.3 1 0 .7-.7 1-1.8 1.6v2.2h17v7.1h-17zm5.7 10.9h-15.8v3.4h15.8v-3.4zm0 9h-15.8v3.4h15.8v-3.4zm0 9h-15.8v3.6h15.8v-3.6zm79 22h-6.1c-2.3 0-5.2-.7-5.2-4.1v-19.1h-5.3l3 .9c.4.1 1.2.4 1.2 1 0 .4-.1.4-1.2 1.6-.2.2-.1.2-.4 1.4-3 13.8-9.2 17.8-11.6 19.3l-7.4-4c1.5-.9 2.2-1.3 2.9-1.9h-16.2v4.5h-7V142l-6-5c4.3-2.4 7-4.8 10.1-9.6h-8.9v-6.1h6.5l-6.7-3c3.4-3.7 5.7-7.8 7.3-12.2l7 2c.4.1.9.3.9.8 0 .4-.2.5-.7.7-.7.3-.9.4-1.2 1.3h19v6.3h-11.1c-.5 2-.7 2.4-1.2 4h12.7v6.1h-7.3l2.9 1.3c.4.2 1.1.7 1.1 1.2 0 .4-.4.6-.8.7-.7.2-.9.4-1.2 1-.4.5-1.1 1.5-1.5 1.8h6.8v5.7h-8.1v3.3h6.1v4.8h-6.1v3.6h6.1v4.9h-6.1v4h7.9v1.9c3.7-4.8 4.9-13 5.1-14.4h-3.1v-38.4h29.4v38.4h-8.8v13.4c0 1 .7 1.6 1.5 1.6h1c1.1 0 2.2-.4 2.2-4.3l6.4 2.6c-1.3 10.1-4.6 10.1-7.9 10.1zm-48.5-53.1c-.9 1.4-1.6 2.6-2.6 4h4.8c.7-2.2 1-3.3 1.2-4h-3.4zm8 21.8h-5.8v3.3h5.8v-3.3zm0 8.1h-5.8v3.6h5.8v-3.6zm0 8.5h-5.8v4h5.8v-4zm-.4-28.3c-1.5 2.6-2.7 4.3-4.1 6h5c1.8-1.9 2.9-3.8 3.7-6h-4.6zm39-11.9h-14.6v3.9h14.6v-3.9zm0 9.8h-14.6v4.2h14.6v-4.2zm0 10.3h-14.6v4.5h14.6v-4.5zm56 7.5c0 2.9.1 11.9.1 14.4h-8.5c.2-4.2.3-7.8.4-11-2.8 1.4-10.4 5.2-10.4 10.3 0 4.8 5.6 5.7 11 5.7 6.3 0 12.5-1 18.7-2.3v8.3c-7 1.1-15.1 1.1-17.4 1.1-4.1 0-12.6 0-17.2-4.9-2.8-2.9-2.8-6.1-2.8-7.2 0-9.1 6.7-12.5 17.7-18.2-.4-2.2-1.3-4.8-5.6-4.8-7.2 0-11.6 6.7-15.6 13.3l-7.2-4.5c5.8-6.2 9.4-11.4 14.4-20.1-4.2.2-6.4.3-9.5.3l-.9-7.6c4.4.4 7.6.5 14 .3 1.8-4 2.8-6.5 3.7-9.7l9.2 1.6c.2.1 1.5.2 1.5.7 0 .4-.3.7-.7.8-.1.1-1.6.7-1.7.7-.1.1-1.9 4.2-2.3 5 6.7-1.1 10-2.1 14.3-3.7l-.5 8.2c-6.6 1.5-12.6 2.2-17.5 2.8-2.3 4.3-2.9 5.3-4.2 7.2 1-.4 3.1-1.5 6.3-1.5 5.1 0 8.3 2.6 10 7.4 8.6-4 9.5-4.5 13-6l2.5 8.3c-5.9 1.8-9.4 3.1-14.8 5.1zm55.7 27.2v-2.1h-12.4v2.1h-7v-12.6c-1 2.8-2.1 5.6-4.8 9.5l-7.5-3.4c2-2.3 5.2-5.9 7.2-12.2 1.8-5.7 1.8-8.3 1.8-23.9h29.5v19.9h-23.1c-.3 1.5-.4 1.8-.5 2.2h23.8v20.4h-7zm5.8-48.2c-1.2-.4-2.5-.9-4.2-1.8v5.8h-18.8v-3.7c-3.5 2.7-5.6 4-7.1 4.8l-5.4-5.6c6.8-2.9 13.8-8.8 16.5-14.9l8 .5c.1 0 1.6.1 1.6.9 0 .1-.1.3-.1.4 3.7 3.4 8.9 5.9 13.7 7.8l-4.2 5.8zm-6.3 17.6h-15c-.1 1.2-.1 1.4-.2 2.7h15.2v-2.7zm0-6.8h-14.9v2.4h14.9V133zm-7.6-19c-2.5 2.9-3.7 4-6 6h14.9c-4.3-2.3-6.7-4.2-8.9-6zm8.1 41.7h-12.4v6.8h12.4v-6.8zm20.7-36.8c-1.1.8-1.2.8-1.2 1.1v33.5h-7.3v-37.1l7.1.7c.7.1 1.9.3 1.9 1.2 0 .2-.2.4-.5.6zm12.3-8.3c-.2.1-.9.6-.9 1v49.9c0 7-3.7 7.7-11.8 7.8l-3.9-8.5c1.5.1 4.8.1 6.3.1.6 0 1.6 0 1.6-1.9v-51.6l7.5.9c.5.1 2 .3 2 1.2.1.4-.1.7-.8 1.1zm37.2 57.4c-9.2 0-13.8-4.6-13.8-10 0-4.2 3.6-9.7 10.8-9.7 7.6 0 12.4 6 14.4 8.6 1.6-1.5 4.8-4.5 4.8-9.7 0-7.2-7.1-9.6-11.9-9.6-3.1 0-6.6.9-8.3 1.8-4.5 2.4-11 8.9-15.1 13.1l-6.2-6.4c7.6-5.7 15.4-12.2 27.1-26.4-4.4 1-8.4 1.8-17.1 1.8l-1.7-8.2c1.8.1 5.9.4 8.2.4 2.8 0 15.2-1 22.2-3.7l3.8 5.9c-4.4 3.7-5.6 4.8-16.3 15.7 2.4-.4 6-.4 7.1-.4 10 0 16.3 8.1 16.3 16.2 0 12-11.4 20.6-24.3 20.6zm-2.8-13.4c-3 0-3.7 2.1-3.7 3.1 0 2.6 3.4 3.3 6 3.3 2.3 0 4-.4 5-.7-.9-1.6-3.1-5.7-7.3-5.7zm-2709.6-9.4c-5.2 24.8-19.6 25.2-28.9 25.5l-8-17c-3.7 6.5-6 9.9-10.4 15.8l-17-8.2c4.5-4.8 6.3-7.5 7.5-9.3-13.2 2.4-33.9 6-37.3 6.3-2.8.2-14.9 1.3-15.8 2.8s-1.9 2.6-3.5 2.6c-1.7 0-2-2.2-2-3.2l-.7-14c11.9-.9 15.8-1.3 25.2-2.4v-9.9h-22.9v-12.9h22.9v-6.7h-22.9v-52h22.9v-6.9H2783V42.3h26.6v-6c-6 .7-11 1.5-17.5 2l-7.5-12.7c-3.4 8.2-6 13.8-10.8 23.7 1.5.9 3.7 2.4 3.7 4.5 0 .6-1.7 3.5-1.7 4.3v112.7h-19v-91c-2.6 3.7-3.2 4.3-5.6 7.3l-16.8-11.2c10.2-13.8 24-33.9 33.4-64.7l19.4 8.6c.9.4 2.4 1.1 2.4 2.6 0 .7-.6 1.5-.7 1.9 16.4-.6 35-3.9 52.4-10.4l9.1 12.3c1.1 1.5 1.3 2.4 1.3 3 0 1.5-1.7 1.9-2.4 1.9s-4.7-1.3-5.4-1.3c-.2 0-7.8 1.7-8.2 1.9-1.3.2-5.8 1.3-10.1 2v8.8h23.3v13.6h-23.3V63h23.1v52h-23.1v6.7h21.6v12.9h-21.6v7.8c6.3-.7 8.6-1.1 20.7-3v9.5c12.9-22.4 17.1-41.2 18.8-77.3h-13.2V53.5h12.9c-.2-14.3-1.1-27.8-2.2-40.4l18.3 1.1c2 .2 3.9.9 3.9 2.4 0 1.3-.7 1.9-1.5 2.6-1.7 1.5-1.7 2.4-1.7 3.4 0 2.2.6 13.6.6 16.2v14.7h24c-.5 17.3-.7 68.6-5.7 91.7zm-91.1-69.5h-8.2v7.5h8.2v-7.5zm0 18.2h-8.2v8h8.2v-8zm24.4-18.2h-8.4v7.5h8.4v-7.5zm0 18.2h-8.4v8h8.4v-8zm47.7-22.5c-2.2 40.8-5.6 56.6-16.4 79.4 3.2.9 5.6 1.3 7.5 1.3 7.1 0 10.4-7.3 12.7-21.2 3.4-19.6 3.9-39.5 3.9-59.4h-7.7zm147.8 11c11.6 22 17.5 30 24.6 38.8l-11.4 14.2c-8.9-4.8-27.4-14.2-48.8-14.2-12.3 0-22.5 5.2-22.5 15.3 0 15.8 24.2 15.8 30.6 15.8 17.7 0 28.3-2.8 37.3-5l-1.9 22c-5.2.7-14.7 2.2-29.4 2.2-33.5 0-56.6-10.6-56.6-35.2 0-25.5 20.1-32.4 41.2-32.4 9.3 0 17.5 1.3 26.6 3-4.5-8-6.1-11.4-9.7-18.3-19.6 4.8-35.6 7.8-59.8 8.2L2943 78c26.5-.2 38.6-1.3 58.7-5.6-2.8-6.3-4.8-11-6.7-15.3-18.8 3.7-29.3 4.8-44.3 5l-5.8-17.9c17.9-.2 27.4-.9 43.4-3.7-4.3-11.6-6.3-17.5-9.3-26.3l21.2-2.4c1.5-.2 6.1-.7 6.1 1.5 0 .9-.6 1.5-1.5 2.4-1.5 1.5-1.7 2-1.7 2.6 0 1.3 3.2 10.4 5.6 17.1 12.7-4.5 19.8-7.6 31.9-14.3l4.1 18.1c-10.6 6.7-20.9 9.9-29.4 12.7 2.4 5.8 3.2 7.6 6.1 14.2 13.6-5.4 21.2-9.3 33.9-16.8l3.4 18.6c-10.4 6.7-17.8 10-29.4 14.5zm147.4-23.1c-.2 6.5-.7 12.1-1.9 19.4h57.6c.6 22.9.9 42.3-4.5 62.1-6.7 24.4-16.6 31.3-42.3 32.1l-9.7-20.7c4.3.4 7.3.6 14.3.6 7.3 0 11.6-1.5 15.1-9.1s6.3-24.6 5.4-46h-39.9c-3.9 12.5-8.6 27.2-22.4 44.2-13 16-25.3 22.9-36.3 29.3l-16.6-15.8c13.8-6.7 30.4-14.9 43.8-36.1 14.3-22.5 14.5-42.5 14.7-59.6h-57.6V39.5h67.6V13.1l23.9 1.9c.7 0 3.4.6 3.4 2.2 0 1.1-2.2 2.6-4.1 4.3v18.1h67.8v19.8h-78.3zm241.9 72.8c-14 20.7-33.4 28.7-43.4 32.8l-13.8-19.2c8.4-2.4 22.2-6.3 33.5-19.9 11.4-13.4 13.4-28.9 13.4-37.1 0-10.2-3-22.7-13.4-32.6-11.7-11.2-24.8-11.9-31.7-12.5-6 44.3-17 70.4-23.1 82.9-5.6 11.6-14.2 27.2-23.9 27.2-6.7 0-37.3-16.8-37.3-50.1 0-41.4 34.1-79 82.2-79 38.8 0 69.3 26.3 69.3 67.8.2 16.4-4.9 29.5-11.8 39.7zm-100.2-71.7c-13.2 12.7-18.6 30-18.6 41.4 0 15.1 8.6 22.9 11.9 22.9 9.7 0 25.7-48.6 29.4-77.7-5.4 1.8-13.8 4.6-22.7 13.4zm266.2 113.1v-6.1h-120.2v-19.6h120.2v-17.5h-103.8v-19.2h103.8V95.4H3465V76.8h59.8v-65l22.7 1.5c2.4.2 4.8.9 4.8 3.5s-3.9 5.4-5.4 6.3v53.7h60.4v96.7h-22.7zm-93.9-101.2c-9.1-20.5-18.6-33.5-25.7-43l18.4-10.1c7.6 10.1 17 23.7 25.7 43.4l-18.4 9.7zm114.6-41.5c-1.9.6-1.9.7-3.2 3.4-8.9 19.8-18.4 33-22.7 38.8l-19.8-8.4c13.6-16.8 19.9-30.9 24.8-44.3l19.9 5.4c1.1.4 3.5 1.3 3.5 2.8.1 1.2-1.6 1.9-2.5 2.3zm99.4 36.5c-9.1 30.9-18.8 60.9-38.4 99.1l-22.7-6.9c11.2-18.1 23.1-38.2 37.8-88.7-14.9 1.9-21.2 2-27.8 2.2l-1.5-19.4c2 .4 6 1.1 15.1 1.1 2.6 0 14.3-.2 18.4-1.1 2.8-12.7 6-27 6.3-39.5l22.9 5.4c.4 0 4.7.9 4.7 3 0 1.3-.6 1.9-2.2 2.6-2.4 1.1-2.8 1.3-3.2 3.2-1.7 8.4-3.2 15.1-4.5 20.3 11-2.4 22.2-7.5 29.6-11v20.7c-6.1 2.1-14 5.1-34.5 9zm47.2 100.4c-33.5 0-47.9-9.3-47.9-28.3 0-.9 0-6.9 2.2-13.4l18.4 3.9c-.7 3.5-.7 6.5-.7 6.9 0 2.4.4 3.9 2.2 5.6 5.2 4.8 19.4 5 23.7 5 17.3 0 27.4-2.8 32.8-4.1l1.9 21.6c-9.5 1.7-19.6 2.8-32.6 2.8zm4.1-73.9c-11.9 0-23.5 1.5-28 2V76.2c9.7-.7 19-1.3 28.9-1.3 13 0 19 .6 24.6 1.1v19.8c-14-1.9-22.7-2-25.5-2zm96.1 33.3h-15.8c-6-16.2-8.4-33.5-8.4-50.7 0-22.9 3.5-44.5 5.2-55.2l20.3 1.1c1.1 0 3.9.4 3.9 2.2 0 1.3-1.9 2-2.6 2.8-3.9 3.2-6.9 38.8-6.9 49.9 0 5.4.4 7.5 1.3 11.6 2.4-6.3 6.1-16 10.8-26.5l13 8.6c-8 18.4-15.4 37-20.8 56.2zm69.3 5.2c-8.8 19.9-19.4 31.1-26.1 38.2l-22.2-11.7c6.7-5 17.3-13.2 26.5-31.5 7.6-15.5 11.4-32.8 11.4-49.9 0-2-.6-30.7-4.7-58h22.5c.6 0 3.9 0 3.9 2.4 0 1.7-3.4 2.8-3.4 4.5 0 1.7.9 9.5 1.1 11.4 1.1 13 2.2 26.8 2.2 39.1.2 11.2-1 32.2-11.2 55.5zm51.6-79.2V36h39.7c-1.7-2.4-6.3-9.3-11.6-15.1l20.3-8.9c2.6 3.2 7.5 8.9 15.3 20.7l-6.9 3.4h36.5c5.6-8.4 8-12.3 12.7-23.1l23.7 6.9c.7.2 1.3 1.1 1.3 1.9 0 .7-.4 1.3-1.5 1.7-.4.2-2.8.7-3.4 1.1-.6.4-6.1 9.9-7.5 11.6h42.5v17.1H3973zm47.9 119.7l-7.8-21.2c7.1 1.1 12.3 1.1 12.3 1.1 3.7 0 5.2-1.5 5.2-4.7v-13.6H4003V172h-19.8V64.7h67.5v87.8c0 17.7-13.6 20.3-29.8 20.3zm9.7-91.7H4003v10.2h27.6V81.1zm0 26.6H4003V118h27.6v-10.3zm57-37.8c-2.6 1.9-3 2-3 2.8v66.9h-20.1V64.5l22.2 1.1c1.5 0 2.4 1.1 2.4 2 0 1.2-.9 1.9-1.5 2.3zm39.1-2.8c-1.3 1.1-2.6 2.6-2.6 3.2v80.5c0 18.3-8.2 20.5-31.3 20.7l-9.9-20.9c3.9.4 7.3.7 11.2.7 6.5 0 8.4-1.5 8.4-6.5V61.5l23.1 1.7c1.3.2 2.2.9 2.2 1.7 0 .9-.7 1.6-1.1 2.2zm129.7 37.1c0 7.3.4 30.4.4 36.7h-21.6c.6-10.6.7-19.8.9-28-7.1 3.5-26.5 13.2-26.5 26.3 0 12.1 14.3 14.5 28 14.5 16 0 31.9-2.4 47.5-6v21.1c-17.7 2.8-38.4 2.8-44.3 2.8-10.4 0-32.1 0-43.8-12.5-7.1-7.5-7.1-15.7-7.1-18.3 0-23.1 17.1-31.9 45.1-46.2-1.1-5.6-3.4-12.3-14.2-12.3-18.3 0-29.4 17-39.7 33.7l-18.3-11.4c14.7-15.8 24-29.1 36.7-51.2-10.6.6-16.4.7-24.2.7l-2.2-19.4c11.2.9 19.4 1.3 35.6.7 4.7-10.1 7.1-16.6 9.3-24.8l23.3 4.1c.6.2 3.7.6 3.7 1.9 0 1.1-.7 1.7-1.9 2-.4.2-4.1 1.9-4.3 1.9-.2.2-4.8 10.6-5.8 12.7 17.1-2.8 25.5-5.2 36.5-9.5l-1.3 20.9c-16.8 3.9-32 5.6-44.5 7.1-6 11-7.5 13.6-10.6 18.4 2.4-1.1 8-3.9 16-3.9 12.9 0 21.1 6.5 25.3 18.8 21.8-10.2 24.2-11.4 33-15.3l6.3 21.2c-14.6 4.9-23.5 8.1-37.3 13.3zM4364 61.9c-3.5 4.1-7.8 8.2-11.4 11.7-6.3 6-8.8 7.5-11.9 9.7l-16.2-14.5c13.2-7.1 20.7-15.8 26.3-24.2l16.2 12.9c2 1.7 2 2 2 2.6 0 1.4-.3 1.4-5 1.8zm71.4-17.9v36.3c0 10.4-10.6 14-22 14h-4.8l-8-18.8h10.6c3.9 0 5-.9 5-6.1V44h-15.1c-.6 17.5-4.5 27.8-15.5 39.3l15.3 8c.9.6 2.4 1.3 2.4 2.6 0 .9-.7 1.5-.9 1.7-.6.6-3.5 2-4.3 2.4h54.6l5.4 6.3c-12.1 16.6-20.5 25.5-33.9 36.3 6.9 3.2 14.3 6.7 29.3 9.7 12.3 2.4 20.1 2.8 28.7 3.2l-9.9 20.3c-25.2-2.8-42.5-7.3-65.6-21.1-16.2 8.9-30.9 15.7-65.6 22.7l-10.6-19c23.1-1.9 39.1-6.1 59.4-16.2-6.3-5.8-10.6-10.2-16.6-18.3-12.9 10.2-21.1 15.3-31.5 19.4l-16-15.5c18.8-6.5 35-19 48.4-33.9-5.8 3.4-10.1 5-14.2 6.5l-11.2-17.5c8.2-2.6 18.8-5.8 25.9-14.9 6-7.8 6.5-14.5 6.9-22.2h-54V26.7h67.1V11.4l22.4.7c2.8.2 5.6.4 5.6 2.4 0 .9-.6 1.3-.9 1.7-3 2.4-3 2.4-3 3.5v6.9h67.6V44h-51zm-43.8 71.2c4.5 6.3 8.6 10.2 14.5 14.9 7.1-5.4 11.2-9.3 15.7-14.9h-30.2zm74.5-28.3c-5.2-9.3-15.3-20.9-23.1-27l16.6-12.9c7.3 5.6 17.1 16.4 24.4 26.5l-17.9 13.4zm181.7 80.5c-15.1 2.6-26.8 2.8-31.7 2.8-19 0-27.2-5.2-27.2-21.1 0-3 .7-16.2.7-19 0-5.8-3.9-8.8-8.4-8.8-5.4 0-9.1 3.9-14 9.1-9.9 11-22.7 26.1-30.9 35.8l-17.1-13c13.8-13.2 23.9-23.3 41.4-43.2 15.1-17.3 22-26.5 30.4-37.6-27.6 7.1-39.7 8.2-54.2 8.4l-4.8-19.2c2.2.4 6.5.7 13.2.7 7.3 0 36.9-2 69.1-14l12.1 16c-16.6 17.7-18.6 19.9-37.5 39.9 4.5-.9 7.1-1.5 9.3-1.5 3.7 0 12.5 2.8 12.5 12.7 0 3.9-1.9 21.2-1.9 24.8 0 7.5 2.6 10.2 13.2 10.2 9.1 0 18.3-1.3 27-3.9l-1.2 20.9zm-41.4-128.8c-23.3 0-34.3-.7-47.7-5l1.1-21.4c17.9 5.6 30.2 6.5 47.5 6.9l-.9 19.5zm159.5 21.1c-16.4 13.2-31.9 33.9-31.9 52.5 0 6.3 2.2 17.9 13.8 26.1 11.7 8.4 24.6 8.8 32.4 8.9l-6.5 23.5c-15.1-3.2-61.7-12.9-61.7-54.4 0-31.9 27.4-57.6 36.2-65.8-23.7 1.9-48.8 3.9-71 8l-3.7-22c43.8-.4 99.5-6.7 135.8-17.3v22.4c-8 .7-23.1 1.7-43.4 18.1zm112.9 95.4c-6 0-10.6-3.2-13.8-6.1-13-12.7-19-34.5-19-69.9 0-23.9 2.6-36 5.6-48.4l20.5 5.6c1.3.4 4.3 1.3 4.3 3.5 0 2-2.2 2.8-5.4 3.9-2 10.2-3.5 21.1-3.5 41.6 0 36.3 8.9 43 12.7 43 6.7 0 14.3-19.8 17.9-28.7l15.5 13.8c-10.4 21.9-19.7 41.7-34.8 41.7zm94.5-33.2c-5.4-38.8-17.7-60.7-27.4-75.7l19.2-9.3c8.9 12.7 25.5 36.1 30.6 79.2l-22.4 5.8zm150.5-92.1c-2.2.2-2.8.7-7.6 5.6-3.9 4.1-22 21.4-41.2 39.3-12.3 11.6-13.2 12.5-13.2 16 0 2.8 1.1 4.8 3.2 6.5 24 19.8 42.1 36 63 62.2l-19.2 17.9c-22-32.8-40.2-49.2-64.3-69.9-8-6.7-9.3-13-9.3-16.4 0-8.2 6.7-15.1 12.9-20.9 26.5-24 41.7-38.8 59.6-60.7l17.1 13.2c.4.4 3.9 3.2 3.9 5 0 1.7-.6 1.7-4.9 2.2zM161.2 57.4c-7.1 18.8-15.1 40.1-32.8 63-19.9 25.9-42.3 38.4-55.2 45.5L53 149.5c12.7-5.8 39.1-18.1 61.9-48.8 14.2-19 19.9-36 23.3-45.7H38.8V33.4h105.5c2.2 0 4.3-1.5 6.1-3l18.4 16.8c-2.9 2.6-5.7 5.4-7.6 10.2zm12.5-21.2c-9.5 0-17.3-8-17.3-17.9 0-9.7 7.6-17.7 17.3-17.7 9.9 0 17.5 8 17.5 17.7 0 10-7.8 17.9-17.5 17.9zm0-28.4c-5.4 0-10.2 4.5-10.2 10.4 0 6.1 5 10.6 10.2 10.6 5.4 0 10.2-4.3 10.2-10.6.1-5.9-4.6-10.4-10.2-10.4zm150.6 149.1v-8h-84.8v7.3h-22.2V34.3h129.1v122.6h-22.1zm0-101.5h-84.8v72.5h84.8V55.4zm99.6 38.5c-8.8-6-20.3-13.2-36.1-18.1l10.6-18.6c14 4.3 25.9 10.4 37.1 19.2l-11.6 17.5zm56.2 33.2c-25.5 21.4-47 32.1-63.9 40.2-.7.4-1.1.9-1.5 2-.7 2.6-1.1 3.4-1.9 3.4-1.9 0-3.9-3.5-4.7-5l-9.9-17.9c47-19.4 79.9-43.8 111.2-89.3l14.7 17.9c-6.9 10.3-19.4 28-44 48.7zM444 51.5c-11-8.2-22.9-14-36.1-18.1l10.6-18.6c14.2 4.3 25.9 10.4 36.1 18.1L444 51.5zm117.8 108.6v-17.3h45.8V80.5h-34.5V63.2h87.6v17.3h-34.5v62.2H672V160H561.8zm246.8-53.7l-17.3-14.7c11.6-10.6 24-23.3 33.9-40.2H708.5V31.3h125.4c2.4 0 5.4-2.8 6.5-4.1l17.1 17.3c-9.1 13.5-28.6 42-48.9 61.9zM792.2 61c-.4.6-2.6 2.4-2.8 3.2-.4.4-1.1 13.4-1.5 15.8-6.3 53.3-37.8 76.6-47.7 83.9l-19.9-11.7c39.3-27.2 48.1-56.8 46.6-95.6l21.8 1.1c3.9.2 4.5.2 4.5 1.7-.1.4-.5.8-1 1.6zM926 25.7c-2.8 2-3 2.2-3 2.8v78.6h-22.2v-88L923 21c1.5.2 4.8.4 4.8 2 0 1.1-1.1 2-1.8 2.7zm77.3-1.3c-2.4 2.4-2.4 3-2.4 8.2-.2 1.7.2 10.1.2 11.9 0 36.3-.4 51.1-6.3 69.1-11 33-35.2 46.8-54.6 56.6L924 152.1c38.2-15.1 54.2-32.8 54.2-89.1 0-4.5-.4-30.4-1.3-45.3l23.9 1.3c.9 0 4.7.2 4.7 2.4-.2.8-.3 1.5-2.2 3zm84.1 40.5c-10.6-8.8-23.3-16.8-38.2-23.5l11.4-17.5c12.3 5.4 27.4 13.4 39.1 23.1l-12.3 17.9zm54.6 50.7c-29.4 23.9-47.1 31.7-70.3 41.6-.9 2.6-1.3 5.8-2.8 5.8-1.1 0-2.8-1.1-4.1-3.5l-13-22.4c14.9-3.5 39.3-9.9 69.1-32.2 28.5-21.2 46.4-45.8 54.6-57l12.9 18.6c-7.3 9.5-21.9 29.1-46.4 49.1zm197.5-49.4c-6.3 16.8-13.2 35.8-31.7 58.9-19.8 24.8-40.1 37.5-51.1 44.3l-20.5-14.5c11.4-5.8 36.5-18.3 59.8-49.4 15.7-21.1 21.1-38.2 23.9-46.8h-47.7c-10.8 15.3-19 24.8-35.8 41L1218 86.5c26.5-21.2 45.1-48.3 53.1-71.9l18.6 8.4c1.5.7 4.8 2.2 4.8 3.9 0 1.1-1.1 1.5-4.3 2.6-2 2.4-4.3 7.3-6.3 10.2h41.7c1.9 0 4.5-.6 8-2.8l15.7 18.3c-5.9 4.3-8.8 8.4-9.8 11zm-9.3-35.1c-4.8-6.1-9.5-10.6-16.2-15.5l9.7-7.6c6.3 4.7 11.4 9.3 16 15.5l-9.5 7.6zm26.7 0c-3.4-4.7-8.9-12.3-16.6-18.1l9.5-7.6c6.3 4.7 12.3 11.9 16.6 18.1l-9.5 7.6zm121.3 132.5L1424.5 77l-10.2-22.4 2.6 30.4v78.6h-24.2v-136h26.8l53.7 86.6 10.2 22.4-2.6-30.4V27.6h24.2v136h-26.8zm107.2 2.5c-38.8 0-52-27.2-52-51.8 0-33.4 24-53.3 52.5-53.3 33.4 0 52.4 23.9 52.4 52.9 0 25.7-15.7 52.2-52.9 52.2zm.5-85.6c-13.8 0-27.4 10.8-27.4 32.8 0 19 10.4 33.2 28.1 33.2 23.1 0 26.6-20.5 26.6-33 .1-22.9-13.5-33-27.3-33zm76 83.1v-25.7h25.2v25.7h-25.2zm73.3 0V69h-36.9V51.3h10.8c9.9 0 25.5-6 29.6-23.7h20.1v136h-23.6zM1846.9 62c-.4 5.6-1.7 11-3.5 16.1l-6.3-2.3c2.5-6 3.5-11.2 3.7-16.9l6.1 1.4c.1 0 1.2.2 1.2.7-.1.4-.4.6-1.2 1zm12.7-6c-.1-1-.3-1.8-.6-2.9-1 .3-1.5.4-2.6.5v29.3h-7.5v-28c-1.7.3-4.5.7-5 .7-1.5.1-1.7.1-2 .5-.7.7-.9.8-1.3.8s-.7-.3-.8-.7l-.7-7.2c.8 0 2.6 0 4.5-.1 1.5-1.6 3.3-3.9 4.2-5.2-3.3-2.5-6.4-4.6-10.3-6.9l3.7-5.6c.9.5 1.5.9 2.6 1.6 3-4.3 4.6-7.6 6.4-12.2l7.2 3c.4.1.6.5.6.7 0 .3-.3.5-.4.6-1.1.4-1.2.4-2 1.6-3 4.9-4.6 7.4-6.5 10 1.1.9 1.6 1.3 2.5 2 4.5-6.2 5.5-8.1 6.7-10.2l6.7 3.1c.4.1.7.4.7.8 0 .7-.7.9-1.3 1-.7.1-1.2.3-3.6 3.9-.7 1-6.1 7.9-8.9 11.3 3.4-.3 4.5-.4 5.7-.5-.7-2.3-1.2-3.5-1.6-4.4l6.1-1.2c1.5 3 3.1 6.7 3.9 12.4l-6.4 1.3zm1.8 17.9c-1.3-4.6-2-8.8-2.6-14.6l6.1-1.8c.7 7 2.2 12.3 2.9 14.8l-6.4 1.6zm3 8.6v-7h16.7v-9.4h-11.3v-7h11.3v-6.3l8.2.4c.4 0 .8.2.8.7 0 .4-.2.7-.4.9-.1.1-.4.5-.4 1.4v2.9h11.1v7h-11.1v9.4h13.5v7h-38.4zm34.9-27.8c-5.5-1.4-9.6-3.1-15.3-7.4-4.9 3.1-8.4 4.6-14.1 6.2l-4-6.7c4.9-1 8.1-2 12.5-4.6-2.3-2.5-4.2-4.9-7.3-9.9l4.7-2.3h-8.5v-7.1h30.8l3.6 3.4c-4.8 8.7-7.8 12.2-11.4 15.8 4.7 3 8.1 4.4 13.9 6.2l-4.9 6.4zM1878.4 30c2.3 3.4 3.9 5.2 6.1 7.4 1.8-2 3.1-3.7 5.1-7.4h-11.2zm87.5 17.5v-9h-44.4v8.9h-7.4V31.7h10.2c-1.2-2.2-2.9-4.5-4.3-6.1l6.7-3.4c1.5 1.8 4 5.3 5.3 8l-2.8 1.6h10.9c-1.2-2.5-3.1-5.6-4.8-7.8l6.4-3.7c2.1 2.7 4.5 6.6 5.6 9.2l-3.4 2.3h7.1c2.9-3.6 5.2-7.2 6.7-10.1l6.7 2.6c1 .4 1.3.5 1.3 1 0 .2-.1.5-.4.6-.2.1-1.5.5-1.7.7-1.3 2.3-2.3 3.7-3.4 5.3h13.5v15.8h-7.8zm-5.5 36.4v-2.2h-32v2h-8.6v-20h16.3c.9-1.3 1.6-2.6 2.3-4.6h-12.9V41.6h36V59H1948c-.4.8-1.4 2.9-2.6 4.6h23.6v20.2h-8.6zm0-14.3h-32v5.9h32v-5.9zm-6.6-22H1934v5.5h19.8v-5.5zm70.5-.9c-1.5 1.4-3.4 3.2-7.3 6.1h21.7v30.6h-8.1V82h-24.8v1.9h-7.9V63.1c-3.3 1.4-5.2 2.1-9.4 3.7l-4.5-7.1c9.5-2.7 18-6.1 28-13h-27.8v-7.1h25.3V34h-19.1v-6.9h19.1v-6.3l9.4.4c.7 0 1 .3 1 .6 0 .5-.4.7-.7 1-.4.2-1 .5-1 1v3.4h8.3v5.3c3.1-4.2 4.8-7.2 6.7-11l8.2 4.8c.2.1.6.4.6.9 0 .6-.6.7-2 .9-1 .1-1.2.2-3.6 4.2-.5.8-3.1 4.5-5.5 7.4h15.7v7.1h-22.3zm6.3 12.5h-24.8V64h24.8v-4.8zm0 11h-24.8v5.2h24.8v-5.2zM2018 34.1v5.6h2.3c2.6-2.6 3.8-4.3 4.8-5.6h-7.1zm55.2 26.3c-4.5 0-8.2-3.7-8.2-8.2s3.7-8.2 8.2-8.2 8.2 3.7 8.2 8.2-3.7 8.2-8.2 8.2zm79 5.3v-2.9h-16.8v20.8h-8.4V62.8h-16.7V66h-8.4V33.1h25.1V20.7l9.2.8c.4.1 1.1.1 1.1.8 0 .5-.5.8-.8 1-.6.4-1 .7-1 1.1v8.7h25.3v32.6h-8.6zm-25.3-24.6h-16.7v13.8h16.7V41.1zm25.3 0h-16.8v13.8h16.8V41.1zm17.6 22.5c3.8-5.3 10.3-14.6 16.3-29.1l8.9 2.9c.8.2 1.3.8 1.3 1.3 0 .7-.5 1-.8 1-1.5.6-1.6.7-2 1.5-5.3 12.2-10.9 20.6-15.3 26.6l-8.4-4.2zm29.8-42.1l9.3.8c.3 0 1.5.1 1.5 1 0 .4-.4.9-.7 1.1-.1.1-1.2 1-1.2 1.3v50c0 5.4-2.2 7.5-14.6 7.7l-4-8.9c2.6.3 5.8.5 6.9.5.6 0 2.8 0 2.8-2.5v-51zm30.1 47c-8.1-10.6-13.2-19.8-17.9-30.5l8.1-3.6c4.7 10.1 9.8 18.7 18.2 28.6l-8.4 5.5zm69.9-20.3c-13.6-4.8-22.2-12.7-28.4-19.7-6.6 9.4-16 16.1-26.1 21.4l-7-7.3c12-4.5 21.6-11.7 28-22.4l9.6 1.3c.8.1 1.3.6 1.3 1.2 0 .1-.1.4-.1.4 3.6 4.3 7.8 8.1 12.4 11 5.6 3.6 10.2 5.4 16.7 7.2l-6.4 6.9zm-56.7 35.7v-8.1h9.8V51.5l7.9.8c.5 0 1.4.1 1.4.9 0 .2 0 .4-.5.9-.2.1-.7.5-.7 1v20.7h7.5V37.5l8.2.8c1 .1 1.8.3 1.8 1 0 .4-.6.8-.9 1-.2.1-.8.6-.8 1v12.4h15.7V62h-15.7v13.8h23.4v8.1h-57.1zm111-18.3c6.5 6.3 12 8.9 20.2 11.3l-5.6 6.4c-12.4-5.1-17.6-10.3-20.9-13.8v13.8h-7.9v-13c-5.5 5-11.2 9.5-20.1 13.8l-6.7-5.9c7.8-3 13-5.7 21-12.4h-21V59h26.8v-3.1H2321V50h18.7v-3.1h-23.4v-6.3h13.7c-1.8-3-2-3.4-2.8-4.4h-14.3V30h10.8c-1.4-2-3.1-4.1-4.8-5.9l6.1-3.8c1.8 1.8 4 4.2 6.2 7.8l-3.1 1.9h5.8v-9.6l8.1 1.1c.2 0 .7.3.7.7 0 .4-.4.7-.6 1-.4.3-.7.7-.7 1.2V30h5.1v-9.3l7.9 1c.4.1.8.2.8.7 0 .3-.2.5-.6.7-.2.1-.6.4-.6.8V30h4.6l-2.4-1.2c2.2-3.4 3.4-6.4 4.2-8.1l7.3 3.7c.2.1.5.3.5.6s-.3.6-.4.7c-.2.1-1.2.4-1.5.7-.1.1-2.2 3.2-2.6 3.8h10.7v6.1h-14.3c-1 1.8-1.7 2.9-2.6 4.4h13.5V47h-23.3v3.1h19.1V56h-19.1v3h26.9v6.7h-20.7zM2336 36.1c1 1.8 1 2 2.3 4.4h10.9c.9-1.4 1.6-3.1 2.2-4.4H2336zm82.7 40.5c-1.5 1.5-4 2.9-8.3 2.9-2.2 0-4.2-.1-5.5-.3l-1.8-7.9c1.3.3 2.9.6 5 .6 2.3 0 3.7-.4 5.1-2 3.3-4.1 3.9-13.3 3.9-16.8 0-5.6-1.4-7.4-5.9-7.4-1.6 0-3.1.2-4 .4-3.7 15-7.2 23.8-13.9 33.9l-7.6-3.4c6.9-9.8 10.3-17.1 13.3-28.6-4 1.2-6.3 2.2-10 4l-2.7-8.8c5.6-.9 8.1-1.4 14.1-2.7.6-4.7.8-7.8.7-13.9l8.8 1.2c1 .1 1.8.5 1.8 1.1 0 .3-.1.4-.8.8-.9.6-.9.6-1 1.5-.4 2.9-.5 4.2-1.1 7.5 1.2-.2 3.2-.5 5.3-.5 9.9 0 10.8 8.7 10.8 15.2-.2 10.5-2.7 19.9-6.2 23.2zm13.6-16.5l-3.9-7c2.6-.4 4.2-.7 4.2-2.5s-2.8-7.8-10.5-16.8l5.9-4.1c3.4 4 13.3 15.8 13.3 23.6 0 5.5-6.2 6.4-9 6.8zm6.4-23.5c-1.8-2.6-3.5-4.5-5.8-6.4l4-2.9c2.1 1.8 4 4.1 5.6 6.2l-3.8 3.1zm7.5-4.3c-1.5-2.4-3.2-4.5-5.2-6.3l3.8-2.8c2 1.6 3.9 3.7 5.7 6.1l-4.3 3zm-552.3 137.3h-18.4c-5.7 0-8.5-2.4-8.5-8.6v-19.5h13.2v-7h-12.8c-.6.9-.7 1-1.2 1.7l-2.5-1.3v7.1c-2 .8-4.7 1.8-6.9 2.7v18.2c0 6-2.9 7.6-11.1 7.6l-4.8-9.2c2.2.3 4.5.5 5.7.5 1.5 0 2.2-.7 2.2-2.1v-12c-2.9 1-3.1 1.2-4.8 1.7-.7.2-.9.3-1.2.8-.7.9-.8 1.1-1.2 1.1-.8 0-.7-1-.9-1.7l-1.2-7.9c1.3-.4 7.9-2.2 9.4-2.6v-13.7h-7.9V118h7.9v-11l8 .5c1 .1 1.8.3 1.8.9 0 .4-.3.6-.5.7-1.1.9-1.2 1-1.2 1.5v7.3h6.9v6.5c1.4-2.9 3.4-7 5.1-17.4l8.5 1.4c1.2.2 1.8.5 1.8 1 0 .4 0 .4-1.2 1.2-.5.3-.7.7-1.5 4.1h25.3c.1 12.7.2 28.4-2.4 34.6-1.8 4-4.5 4.6-7.9 4.6l-3.1-5.2H1875v10.8c0 1.8.9 2.6 2.7 2.6h13.1c3.6 0 5-1.5 5.1-7.3l7.9 3.7c-1.8 9.3-3.4 11.1-9.9 11.1zm-37.1-44.4v11.2c3-1 3.4-1.1 6.1-2.1l-4.5-2.4c1.6-1.6 3.1-3.2 5-6.7h-6.6zm36.9-3.2h-19.8c-.9 2.1-1.8 4.1-2.4 5.5h17.7v18.2c1.3-.1 2.3-.3 2.9-1.7.5-1.2 1.8-6.7 1.8-14.8 0-2.3-.1-4.7-.2-7.2zm71.9 46c-5.9 1-10.5 1.1-12.4 1.1-7.5 0-10.7-2-10.7-8.3 0-1.2.3-6.4.3-7.5 0-2.3-1.5-3.4-3.3-3.4-2.1 0-3.6 1.5-5.5 3.6-3.9 4.3-8.9 10.2-12.2 14.1l-6.7-5.1c5.4-5.2 9.4-9.2 16.3-17 5.9-6.8 8.6-10.4 11.9-14.8-10.8 2.8-15.6 3.2-21.3 3.3l-1.9-7.5c.9.1 2.6.3 5.2.3 2.9 0 14.5-.8 27.2-5.5l4.8 6.3c-6.5 7-7.3 7.8-14.7 15.7 1.8-.4 2.8-.6 3.7-.6 1.5 0 4.9 1.1 4.9 5 0 1.5-.7 8.3-.7 9.7 0 2.9 1 4 5.2 4 3.6 0 7.2-.5 10.6-1.5l-.7 8.1zm-16.2-50.6c-9.2 0-13.5-.3-18.7-2l.4-8.4c7 2.2 11.9 2.6 18.7 2.7l-.4 7.7zm50.5 50.6c-9.2 0-13.8-4.6-13.8-10 0-4.2 3.6-9.7 10.8-9.7 7.6 0 12.4 6 14.4 8.6 1.6-1.5 4.8-4.5 4.8-9.7 0-7.2-7.1-9.6-11.9-9.6-3.1 0-6.6.9-8.3 1.8-4.5 2.4-11 8.9-15.1 13.1l-6.1-6.4c7.6-5.7 15.4-12.2 27.1-26.4-4.4 1-8.4 1.8-17.1 1.8l-1.7-8.2c1.8.1 5.9.4 8.2.4 2.8 0 15.2-1 22.2-3.7l3.8 5.9c-4.4 3.7-5.6 4.8-16.3 15.7 2.4-.4 6-.4 7.1-.4 10 0 16.3 8.1 16.3 16.2-.1 12-11.5 20.6-24.4 20.6zm-2.8-13.4c-3 0-3.7 2.1-3.7 3.1 0 2.6 3.4 3.3 6 3.3 2.3 0 4-.4 5-.7-.9-1.6-3.1-5.7-7.3-5.7zm47.1-6c-.4 5.6-1.7 11-3.5 16.1l-6.3-2.3c2.5-6 3.5-11.2 3.7-16.9l6.1 1.4c.1 0 1.2.2 1.2.7-.1.3-.4.5-1.2 1zm12.7-6.1c-.1-1-.3-1.8-.6-2.9-1 .3-1.5.4-2.6.5v29.3h-7.5v-28c-1.7.3-4.5.7-5 .7-1.5.1-1.7.1-2 .5-.7.7-.9.8-1.3.8s-.7-.3-.8-.7l-.7-7.2c.8 0 2.6 0 4.5-.1 1.5-1.6 3.3-3.9 4.2-5.2-3.3-2.5-6.4-4.6-10.3-6.9l3.7-5.6c.9.5 1.5.9 2.6 1.6 3-4.3 4.6-7.6 6.4-12.2l7.2 3c.4.1.6.5.6.7 0 .3-.3.5-.4.6-1.1.4-1.2.4-2 1.6-3 4.9-4.6 7.4-6.5 10 1.1.9 1.6 1.3 2.5 2 4.5-6.2 5.5-8.1 6.7-10.2l6.7 3.1c.4.1.7.4.7.8 0 .7-.7.9-1.3 1-.7.1-1.2.3-3.6 3.9-.7 1-6.1 7.9-8.9 11.3 3.4-.3 4.5-.4 5.7-.5-.7-2.3-1.2-3.5-1.6-4.4l6.1-1.2c1.5 3 3.1 6.7 3.9 12.4l-6.4 1.3zm1.8 17.9c-1.3-4.6-2-8.8-2.6-14.6l6.1-1.8c.7 7 2.2 12.3 2.9 14.8l-6.4 1.6zm3 8.7v-7h16.7v-9.4h-11.3v-7h11.3v-6.3l8.2.4c.4 0 .8.2.8.7 0 .4-.2.7-.4.9-.1.1-.4.5-.4 1.4v2.9h11.1v7h-11.1v9.4h13.5v7h-38.4zm35-27.9c-5.5-1.4-9.6-3.1-15.3-7.4-4.9 3.1-8.4 4.6-14.1 6.2l-4-6.7c4.9-1 8.1-2 12.5-4.6-2.3-2.5-4.2-4.9-7.3-9.9l4.7-2.3h-8.5v-7.1h30.8l3.6 3.4c-4.8 8.7-7.8 12.2-11.4 15.8 4.7 3 8.1 4.4 13.9 6.2l-4.9 6.4zm-21-24.7c2.3 3.4 3.9 5.2 6.1 7.4 1.8-2 3.1-3.7 5.1-7.4h-11.2zm87.5 17.5v-9h-44.4v8.9h-7.4v-15.7h10.2c-1.2-2.2-2.9-4.5-4.3-6.1l6.7-3.4c1.5 1.8 4 5.3 5.3 8l-2.8 1.6h10.9c-1.2-2.5-3.1-5.6-4.8-7.8l6.4-3.7c2.1 2.7 4.5 6.6 5.6 9.2l-3.4 2.3h7.1c2.9-3.6 5.2-7.2 6.7-10.1l6.7 2.6c1 .4 1.3.5 1.3 1 0 .2-.1.5-.4.6-.2.1-1.5.5-1.7.7-1.3 2.3-2.3 3.7-3.4 5.3h13.5V134h-7.8zm-5.4 36.4v-2.2h-32v2h-8.6v-20.1h16.3c.9-1.3 1.6-2.6 2.3-4.6H2123v-17.4h36v17.4h-13.7c-.4.8-1.4 2.9-2.6 4.6h23.6v20.2h-8.5zm0-14.3h-32v5.9h32v-5.9zm-6.6-22h-19.8v5.5h19.8v-5.5zm30.1-9.6v-6.4h23.9v6.4h-23.9zm58.1 42.8c-3.3-2.4-7-5.6-11.1-11.4v14.3h-7.9v-16.4c-2.9 5-6.4 9.4-12.3 13.9l-4.4-3.5v4.5h-7.1v-2h-6.4v3.2h-7.3v-22.6h20.8V161c2.5-1.7 7-4.8 12-12.6h-10.2v-7.2h14.9v-4.1h-12.8v-28.6h34.3v28.6h-13.6v4.1h16v7.2h-13c3.5 5.6 8.7 9.9 14.2 13.5l-6.1 5.4zm-54.8-23.6v-5.9h17.5v5.9h-17.5zm.2-9.6v-5.9h17.1v5.9h-17.1zm.2-18.9v-6.7h17.1v6.7H2185zm11.6 38.4h-6.4v6.4h6.4v-6.4zm23.7-38.5h-5.5v4.7h5.5v-4.7zm0 10.6h-5.5v5.8h5.5v-5.8zm13.9-10.6h-5.9v4.7h5.9v-4.7zm0 10.6h-5.9v5.8h5.9v-5.8zm81.3 43.9h-26.3c-7.8 0-14.6-1.7-17.1-2.7-4.8-2.1-7.3-5.1-8.9-7-1.1 4.9-2 7.6-3.3 10.6l-7.1-2.2c3.1-6.6 4.5-12.6 5-23.3l7 .8c.4.1.7.3.7.7 0 .1-.7.8-.7 1-.1.1-.4 4.5-.4 4.9.9 1.5 1.5 2.7 3.1 4.3v-16.2h-13.3v-5.9h30v5.9h-9.4v6.3h9.4v5.9h-9.4v8.5c2.5.7 6.3 2 16.2 2 9.2 0 18.4-.6 27.5-1.6l-3 8zm-59.2-38V109h25.7v22.7h-25.7zm18.5-17.5h-11.3v3.9h11.3v-3.9zm0 8.2h-11.3v4.2h11.3v-4.2zm28.6-7.6c-1.2 2.4-2.1 3.8-3 5.3h14.1v28.7h-19.4l3.9 3.9c.2.2.5.5.5 1 0 .4-.4.4-.7.4-.2 0-.4-.1-1-.1-4.7 4.1-7.8 5.9-9.5 6.7l-5.2-4.8c4.1-1.8 7-3.4 10.8-7.2h-7.2V120h6.3c1.2-2 1.7-3.1 2.5-5.3H2285V109h31.9v5.8h-13.5zm4.2 10.5h-13.8v3.1h13.8v-3.1zm0 7.5h-13.8v3.1h13.8v-3.1zm0 7.5h-13.8v3.3h13.8v-3.3zm5.6 20.2c-5.5-1.9-9.4-5.1-11.3-6.8l3.7-4.8c1.3 1 5 4 11.1 6l-3.5 5.6zm51.4-17.2c0 2.9.1 11.9.1 14.4h-8.5c.2-4.2.3-7.8.4-11-2.8 1.4-10.4 5.2-10.4 10.3 0 4.8 5.6 5.7 11 5.7 6.3 0 12.5-1 18.7-2.3v8.3c-7 1.1-15.1 1.1-17.4 1.1-4.1 0-12.6 0-17.2-4.9-2.8-2.9-2.8-6.1-2.8-7.2 0-9.1 6.7-12.5 17.7-18.2-.4-2.2-1.3-4.8-5.6-4.8-7.2 0-11.6 6.7-15.6 13.3l-7.2-4.5c5.8-6.2 9.4-11.4 14.4-20.1-4.2.2-6.4.3-9.5.3l-.9-7.6c4.4.4 7.6.5 14 .3 1.8-4 2.8-6.5 3.7-9.7l9.2 1.6c.2.1 1.5.2 1.5.7 0 .4-.3.7-.7.8-.1.1-1.6.7-1.7.7-.1.1-1.9 4.2-2.3 5 6.7-1.1 10-2.1 14.3-3.7l-.5 8.2c-6.6 1.5-12.6 2.2-17.5 2.8-2.3 4.3-2.9 5.3-4.2 7.2 1-.4 3.1-1.5 6.3-1.5 5.1 0 8.3 2.6 10 7.4 8.6-4 9.5-4.5 13-6l2.5 8.3c-5.9 1.8-9.4 3.1-14.8 5.1zm45.9 26.7l-2-6.2c1 .1 1.8.1 2.2.1 1.8 0 3.8-.4 3.8-2.6v-8h-13.8c-.7 4.5-1.4 8.3-4.9 16.3l-6.7-2.5c2.9-5.7 6-11.8 6-27.8 0-3.6-.1-7.1-.5-10.6l-6.4-2.8c5.6-7.2 7.8-11.3 10.6-17.9l6.4 1.1c1.3.2 1.9.4 1.9 1s-.5.7-1 .9c-.7.1-.7.3-1.2 1.5h11.7l1.8 2.6-5.4 8.9h7.5v40.4c0 5.3-6.7 5.5-10 5.6zm-8.7-51.5c-1.3 2.5-2.3 4-3.3 5.4h5.9l3.4-5.4h-6zm3.3 11.8h-3.9v5.4h3.9v-5.4zm0 11.2h-3.7v5.5h3.7v-5.5zm9.4-11.2h-4v5.4h4v-5.4zm0 11.2h-4v5.5h4v-5.5zm39.1-24.3c-.1 13-4.7 14.8-11.4 15.2 1 .2 2.8.5 2.8 1 0 .4-.4.8-.6 1.1-.4.4-.7.8-.7 1.2v1.3h8.5v6.4h-8.5v6.4h9.3v6.4h-9.3v13.3h-7.2v-13.3h-12.4v-6.4h12.4v-6.4h-7.3c-1.1 2-1.5 2.8-2.9 4.8l-5.6-4c3.2-4.1 4.6-7.5 5.7-11.6l-5.7-4.5c3.9-2.3 7.7-4.8 9.2-12.7h-6.3v-5.6h30.1l-.1 7.4zm-15.6-1.8c-1.6 6.9-3.8 11.8-10.4 17.4l2.9 1.1c.9.4 2.6 1 2.6 1.5s-.2.6-1.1 1l-.1.7h4.5v-5.3l5.1.6-3-7.2c1.1.1 1.8.1 2.2.1 5 0 5.1-5 5.1-9.8h-7.8zm30.9 23.4c-3.6-2.9-6.8-4.7-9.7-6.2l4.5-6.2c2 1 5.7 3 9.7 6.2l-4.5 6.2zm4.7 22c-.5 1.3-3.3 7.8-3.4 8-.1.3 0 1.5 0 1.8 0 .5-.1.6-.4.6-.5 0-1.7-.7-1.8-.7l-6.2-3.7c4.7-7.6 7.2-15.2 9-21.7l6.7 4.5c-1.2 3.6-2.3 6.8-3.9 11.2zm1.1-41.1c-4.3-3.9-6.9-5.4-9.7-6.9l4.3-5.8c2.8 1.5 5.1 2.9 9.7 6.8l-4.3 5.9zm47.2 51c-2.1-1.1-7-3.5-11.9-8.4-5.1-4.9-7.4-9.3-8.6-11.4-2 4.8-6.7 14.2-20.4 20.1l-5.6-6.9c9.4-3 17.4-9.4 20.2-19.8h-14.8v-7.4h15.7c.1-3.1.1-3.9.1-10.6h-12.8v-7.3h12.7c-.1-4.2-.1-7.1-.5-11.6l8.5.3c.8 0 2.1.1 2.1 1 0 .3-.3.5-.5.7-1 .7-1.1.8-1.1 1.5 0 1.1.1 6.8.1 8.1h17.6l-1 17.9h5.2v7.4h-20.3c3.9 8.9 11.6 15.3 20.6 19.3l-5.3 7.1zm-17-44.4c0 3 0 3.7-.2 10.6h8.8l.4-10.6h-9zm65.6-1.5v10.2c.8 1.8 2.1 4.3 2.1 8.9 0 2.1-.4 7.5-3.7 14.1-3.4 6.8-7.3 10.9-10 13.6l-8.2-4.2c4.4-2.9 8.9-6.7 10.5-12-1.6.4-2.7.7-4 .7-1.9 0-4.2-.7-6-2.3-3-2.6-3.8-6.6-3.8-10.2 0-8.1 4-13.6 11.5-13.6 1.4 0 2.4.2 3.4.6l-.1-5.5c-6.5.4-17.6 1-26.9 2.2v-8.5c5 0 11.3 0 26.6-.7-.1-2.3-.1-6.1-.5-11.5l8.1.5c1.7.1 2.1.3 2.1 1 0 .4-.1.7-.7 1.1-.5.4-.6.6-.6.9v7.5c10.2-.6 12.4-.8 19.9-1.4v7.9c-5.3.2-10.2.3-19.7.7zm-8.1 13.3c-.7-.7-1.8-1-2.7-1-2.9 0-5 2.6-5 6.4 0 4.4 2.3 6.1 4 6.1 1.5 0 5.1-1.6 5.1-6.8 0-1.5-.2-3.4-1.4-4.7zm62.4 30c-9.2 0-13.8-4.6-13.8-10 0-4.2 3.6-9.7 10.8-9.7 7.6 0 12.4 6 14.4 8.6 1.6-1.5 4.8-4.5 4.8-9.7 0-7.2-7.1-9.6-11.9-9.6-3.1 0-6.6.9-8.3 1.8-4.5 2.4-11 8.9-15.1 13.1l-6.1-6.4c7.6-5.7 15.4-12.2 27.1-26.4-4.4 1-8.4 1.8-17.1 1.8l-1.7-8.2c1.8.1 5.9.4 8.2.4 2.8 0 15.2-1 22.2-3.7l3.8 5.9c-4.4 3.7-5.6 4.8-16.3 15.7 2.4-.4 6-.4 7.1-.4 10 0 16.3 8.1 16.3 16.2-.1 12-11.5 20.6-24.4 20.6zm-2.8-13.4c-3 0-3.7 2.1-3.7 3.1 0 2.6 3.4 3.3 6 3.3 2.3 0 4-.4 5-.7-.9-1.6-3.1-5.7-7.3-5.7z"></path></svg>